<?xml version="1.0" encoding="UTF-8" standalone="no"?>
<!DOCTYPE svg PUBLIC "-//W3C//DTD SVG 1.1//EN" "http://www.w3.org/Graphics/SVG/1.1/DTD/svg11.dtd">
<svg width="100%" height="100%" viewBox="0 0 230 230" version="1.1" xmlns="http://www.w3.org/2000/svg" xmlns:xlink="http://www.w3.org/1999/xlink" xml:space="preserve" xmlns:serif="http://www.serif.com/" style="fill-rule:evenodd;clip-rule:evenodd;stroke-linejoin:round;stroke-miterlimit:1.41421;"><rect id="grid_layout_complex" x="0" y="0" width="230" height="230" style="fill:none;"/><clipPath id="_clip1"><rect x="0" y="0" width="230" height="230"/></clipPath><g clip-path="url(#_clip1)"><rect x="0" y="0" width="230" height="230" style="fill:#34495e;"/><rect x="0" y="0" width="40" height="40" style="fill:#4383b8;"/><rect x="0" y="40" width="40" height="190" style="fill:#286290;"/><rect x="40" y="0" width="190" height="40" style="fill:#1c486b;"/><rect x="40" y="40" width="40" height="20" style="fill:#4383b8;"/><rect x="40" y="60" width="40" height="170" style="fill:#1c486b;"/><rect x="80" y="40" width="150" height="20" style="fill:#286290;"/><rect x="80" y="60" width="150" height="170" style="fill:#4383b8;"/><text x="11.697px" y="23.463px" style="font-family:'ArialMT', 'Arial', sans-serif;font-size:12px;fill:#fff;">0,0</text><g transform="matrix(1,0,0,1,99.6753,-16.6648)"><text x="27.066px" y="33.589px" style="font-family:'ArialMT', 'Arial', sans-serif;font-size:12px;fill:#fff;">0,1</text><text x="6.883px" y="45.981px" style="font-family:'ArialMT', 'Arial', sans-serif;font-size:12px;fill:#fff;">colSpan=2</text></g><text x="146.794px" y="148.463px" style="font-family:'ArialMT', 'Arial', sans-serif;font-size:12px;fill:#fff;">2,2</text><text x="52.58px" y="148.463px" style="font-family:'ArialMT', 'Arial', sans-serif;font-size:12px;fill:#fff;">2,1</text><text x="146.322px" y="53.463px" style="font-family:'ArialMT', 'Arial', sans-serif;font-size:12px;fill:#fff;">1,2</text><text x="52.107px" y="53.463px" style="font-family:'ArialMT', 'Arial', sans-serif;font-size:12px;fill:#fff;">1,1</text><g transform="matrix(6.12323e-17,-1,1,6.12323e-17,-16.6648,170.48)"><text x="27.066px" y="33.589px" style="font-family:'ArialMT', 'Arial', sans-serif;font-size:12px;fill:#fff;">1,0</text><text x="6.722px" y="45.981px" style="font-family:'ArialMT', 'Arial', sans-serif;font-size:12px;fill:#fff;">rowSpan 2</text></g></g></svg>