<?xml version="1.0" encoding="UTF-8" standalone="no"?>
<!DOCTYPE svg PUBLIC "-//W3C//DTD SVG 1.1//EN" "http://www.w3.org/Graphics/SVG/1.1/DTD/svg11.dtd">
<svg width="100%" height="100%" viewBox="0 0 230 230" version="1.1" xmlns="http://www.w3.org/2000/svg" xmlns:xlink="http://www.w3.org/1999/xlink" xml:space="preserve" xmlns:serif="http://www.serif.com/" style="fill-rule:evenodd;clip-rule:evenodd;stroke-linejoin:round;stroke-miterlimit:1.41421;"><rect id="stack_layout_horizontal_align_children" x="0" y="0" width="230" height="230" style="fill:none;"/><clipPath id="_clip1"><rect x="0" y="0" width="230" height="230"/></clipPath><g clip-path="url(#_clip1)"><rect x="0" y="0" width="230" height="230" style="fill:#34495e;"/><path d="M0,0l0,80l40,0l0,-80l-40,0Z" style="fill:#4383b8;"/><path d="M40,80l0,70l40,0l0,-70l-40,0Z" style="fill:#286290;"/><path d="M80,150l0,80l40,0l0,-80l-40,0Z" style="fill:#1c486b;"/><path d="M120,0l0,230l40,0l0,-230l-40,0Z" style="fill:#4383b8;"/><text x="11.794px" y="43.006px" style="font-family:'ArialMT', 'Arial', sans-serif;font-size:12px;fill:#fff;">top</text><text x="43.008px" y="119.128px" style="font-family:'ArialMT', 'Arial', sans-serif;font-size:12px;fill:#fff;">center</text><text x="81.651px" y="194.225px" style="font-family:'ArialMT', 'Arial', sans-serif;font-size:12px;fill:#fff;">bottom</text><text x="122.217px" y="119.225px" style="font-family:'ArialMT', 'Arial', sans-serif;font-size:12px;fill:#fff;">stretch</text></g></svg>