<?xml version="1.0" encoding="UTF-8" standalone="no"?>
<svg
   xmlns:dc="http://purl.org/dc/elements/1.1/"
   xmlns:cc="http://creativecommons.org/ns#"
   xmlns:rdf="http://www.w3.org/1999/02/22-rdf-syntax-ns#"
   xmlns:svg="http://www.w3.org/2000/svg"
   xmlns="http://www.w3.org/2000/svg"
   xmlns:sodipodi="http://sodipodi.sourceforge.net/DTD/sodipodi-0.dtd"
   xmlns:inkscape="http://www.inkscape.org/namespaces/inkscape"
   viewBox="0 0 331.46924 87.864671"
   version="1.1"
   id="svg3688"
   sodipodi:docname="logos_combined.svg"
   inkscape:version="0.92.0 r15299"
   width="331.46924"
   height="87.86467"
   inkscape:export-filename="C:\Users\dpers\Pictures\new_logo-red.png"
   inkscape:export-xdpi="200"
   inkscape:export-ydpi="200">
  <metadata
     id="metadata3694">
    <rdf:RDF>
      <cc:Work
         rdf:about="">
        <dc:format>image/svg+xml</dc:format>
        <dc:type
           rdf:resource="http://purl.org/dc/dcmitype/StillImage" />
        <dc:title></dc:title>
      </cc:Work>
    </rdf:RDF>
  </metadata>
  <defs
     id="defs3692" />
  <sodipodi:namedview
     pagecolor="#ffffff"
     bordercolor="#666666"
     borderopacity="1"
     objecttolerance="10"
     gridtolerance="10"
     guidetolerance="10"
     inkscape:pageopacity="0"
     inkscape:pageshadow="2"
     inkscape:window-width="1920"
     inkscape:window-height="1017"
     id="namedview3690"
     showgrid="false"
     inkscape:zoom="1.9032258"
     inkscape:cx="323.82651"
     inkscape:cy="51.217504"
     inkscape:window-x="-8"
     inkscape:window-y="56"
     inkscape:window-maximized="1"
     inkscape:current-layer="g4640"
     fit-margin-top="0"
     fit-margin-left="0"
     fit-margin-right="0"
     fit-margin-bottom="0" />
  <g
     id="g3715"
     transform="translate(331.58021,-51.313279)">
    <g
       id="g4576">
      <g
         id="g4640"
         transform="matrix(0.94188955,0,0,0.94188955,36.743994,6.2611781)">
        <path
           sodipodi:nodetypes="sccccccccsccscc"
           id="path2"
           d="m -51.782286,59.51075 c 3.827402,3.862486 5.814339,8.700855 5.959459,14.515113 v 41.062497 c -0.14512,5.81289 -2.132057,10.65263 -5.959459,14.51511 -3.827398,3.86249 -8.623174,5.86764 -14.384618,6.01546 h -40.688156 c -5.76144,-0.14782 -10.55586,-2.15297 -14.38326,-6.01546 -3.8274,-3.86248 -5.81434,-8.70222 -5.96081,-14.51511 V 74.025863 c 0.14647,-5.814258 2.13341,-10.652627 5.96081,-14.515113 3.8274,-3.862483 8.62182,-5.867635 14.38326,-6.015454 h 40.688156 c 5.761444,0.147819 10.55722,2.152971 14.384618,6.015454 z M -120.4232,94.556432 c 84.188417,19.320048 42.094205,9.660018 0,0 z"
           style="fill:#3c5afd;fill-opacity:1;stroke-width:0.31933516"
           inkscape:connector-curvature="0" />
        <path
           sodipodi:nodetypes="cccccccccccccccccccccczscszccccccccccccccccccccccczscsscc"
           inkscape:connector-curvature="0"
           style="fill:#ffffff;stroke-width:0.74799329"
           d="m -92.562232,128.11292 c -6.620789,1.72122 -13.612288,-0.87108 -17.510538,-6.49258 -2.36773,-3.30538 -3.3034,-7.42551 -2.59552,-11.42933 0.1171,-0.65133 0.27957,-1.29368 0.48618,-1.92235 l 0.38897,-1.18184 1.05467,0.748 c 2.43121,1.78837 5.15086,3.14695 8.04093,4.01672 l 0.74797,0.23188 -0.0748,0.748 c -0.0895,1.08312 0.20447,2.16324 0.83027,3.0518 1.16948,1.7357 3.30996,2.54027 5.333195,2.00462 0.44479,-0.11894 0.868628,-0.30564 1.256633,-0.5535 l 20.517454,-13.09737 c 1.01751,-0.64248 1.719954,-1.68122 1.937303,-2.8648 0.221941,-1.20083 -0.04755,-2.440482 -0.747994,-3.440782 -1.175534,-1.69551 -3.283793,-2.477894 -5.280831,-1.95974 -0.446579,0.120534 -0.872651,0.307098 -1.264109,0.553514 l -7.86889,4.996608 c -1.288814,0.82174 -2.696618,1.43986 -4.173803,1.83257 -6.625361,1.72582 -13.623628,-0.86678 -17.525478,-6.49258 -2.35467,-3.310902 -3.27675,-7.430571 -2.55814,-11.429338 0.70701,-3.92456 3.03032,-7.371532 6.40281,-9.499515 0,0 4.3259,-2.500421 5.579839,-3.594756 1.253937,-1.094335 1.501341,-2.14721 1.80661,-3.366564 0.337453,-1.347905 -0.38479,-4.608183 -0.38479,-4.608183 0,0 2.536479,2.11809 3.855007,2.417535 1.525637,0.34648 2.652323,0.649505 4.152547,-0.254513 1.500223,-0.904017 5.515733,-3.690881 5.515733,-3.690881 1.288814,-0.821743 2.696619,-1.439866 4.173803,-1.832584 6.623137,-1.724676 13.618663,0.868031 17.518002,6.492582 2.367741,3.305372 3.303402,7.425515 2.595538,11.429339 -0.117112,0.651318 -0.279572,1.29366 -0.486194,1.922342 l -0.388959,1.181828 -1.05467,-0.747992 c -2.431198,-1.788376 -5.150859,-3.146943 -8.040928,-4.016726 l -0.747992,-0.231877 0.07479,-0.747993 c 0.08938,-1.083131 -0.204466,-2.163256 -0.830271,-3.051812 -1.174127,-1.69733 -3.283678,-2.480194 -5.280833,-1.959743 -0.44479,0.118954 -0.868625,0.305645 -1.25663,0.553517 l -20.569823,13.052481 c -1.01795,0.640615 -1.718609,1.68075 -1.929829,2.864815 -0.22976,1.20093 0.0403,2.443626 0.748,3.440768 1.175529,1.695515 3.283802,2.4779 5.280842,1.959743 0.446576,-0.120535 0.872645,-0.3071 1.264102,-0.553514 l 7.838975,-4.996596 c 1.288814,-0.821744 2.696619,-1.439865 4.173805,-1.832585 6.625359,-1.725827 13.623638,0.866792 17.52548,6.492582 2.362509,3.307587 3.292734,7.427554 2.580578,11.42935 -0.70701,3.92455 -3.030325,7.37153 -6.402822,9.49951 0,0 -3.642471,2.49221 -4.94998,3.45559 -1.307509,0.96338 -1.787244,1.95442 -1.932383,3.30419 -0.145137,1.34976 0.623968,4.29276 0.623968,4.29276 0,0 -2.468149,-1.43901 -4.120502,-2.02658 -1.330513,-0.47312 -2.96579,-0.44851 -5.014807,0.79706 -1.63188,0.992 -5.131233,3.27433 -5.131233,3.27433 -1.288815,0.82176 -2.696622,1.43987 -4.173809,1.83259"
           id="path3711" />
      </g>
      <rect
         style="opacity:1;vector-effect:none;fill:#ffffff;fill-opacity:1;stroke:#ffffff;stroke-width:3.77952766;stroke-linecap:butt;stroke-linejoin:miter;stroke-miterlimit:4;stroke-dasharray:none;stroke-dashoffset:0;stroke-opacity:1"
         id="rect5209"
         width="60.423729"
         height="57.796612"
         x="-314.24124"
         y="66.669472" />
      <g
         id="g4580"
         transform="matrix(0.30217196,0,0,0.30217196,-322.64801,57.618364)">
        <path
           d="m 237.24831,18.751687 c 12.04034,12.040333 18.2909,27.122748 18.74742,45.247246 V 192.00107 c -0.45652,18.12023 -6.70708,33.20691 -18.74742,45.24724 C 225.20798,249.28865 210.1213,255.53921 191.9968,256 H 63.998933 C 45.874435,255.53921 30.79202,249.28865 18.751687,237.24831 6.7113548,225.20798 0.46079232,210.1213 0,192.00107 V 63.998933 C 0.46079232,45.874435 6.7113548,30.79202 18.751687,18.751687 30.79202,6.7113548 45.874435,0.46079232 63.998933,0 H 191.9968 c 18.1245,0.46079232 33.21118,6.7113548 45.25151,18.751687 z M 219.59314,121.75157 c -4.0234,-4.00206 -6.11403,-9.02385 -6.28043,-15.06535 V 63.998933 c -0.128,-6.041499 -2.20156,-11.071815 -6.2207,-15.090948 -4.01913,-4.0234 -9.05371,-6.092699 -15.09521,-6.220696 H 170.68515 V 149.31378 L 85.314845,42.687289 H 63.998933 c -6.041499,0.127997 -11.071815,2.197296 -15.090948,6.220696 -4.0234,4.019133 -6.092699,9.049449 -6.220696,15.090948 v 42.687287 c -0.166398,6.0415 -2.25703,11.06329 -6.280429,15.06535 -4.019133,3.9978 -9.049449,6.0799 -15.090949,6.2463 6.0415,0.17066 11.071816,2.25276 15.090949,6.25056 4.023399,4.00207 6.114031,9.02385 6.280429,15.06535 v 42.68729 c 0.127997,6.03723 2.197296,11.07181 6.220696,15.09094 4.019133,4.01914 9.049449,6.0927 15.090948,6.2207 H 85.314845 V 106.68622 l 85.370305,106.62649 h 21.31165 c 6.0415,-0.128 11.07608,-2.20156 15.09521,-6.2207 4.01914,-4.01913 6.0927,-9.05371 6.2207,-15.09094 v -42.68729 c 0.1664,-6.0415 2.25703,-11.06328 6.28043,-15.06535 4.01913,-3.9978 9.04945,-6.0799 15.09095,-6.25056 -6.0415,-0.1664 -11.07182,-2.2485 -15.09095,-6.2463 z"
           id="path4578"
           inkscape:connector-curvature="0"
           style="fill:#3c5afd" />
      </g>
      <path
         inkscape:connector-curvature="0"
         style="fill:#ff3e00;stroke-width:0.73288655"
         d="m -134.41082,65.390899 c -8.0251,-11.491661 -23.88477,-14.899584 -35.35444,-7.592705 l -20.13973,12.840173 a 23.056612,23.056612 0 0 0 -10.4363,15.471237 24.346492,24.346492 0 0 0 2.39654,15.625136 23.100585,23.100585 0 0 0 -3.45189,8.64807 24.632318,24.632318 0 0 0 4.19943,18.62265 c 8.06175,11.49166 23.8921,14.89957 35.36178,7.59269 l 20.13972,-12.84017 a 23.071269,23.071269 0 0 0 10.43631,-15.47124 24.346492,24.346492 0 0 0 -2.39654,-15.639785 23.100585,23.100585 0 0 0 3.4519,-8.648066 24.603002,24.603002 0 0 0 -4.20678,-18.622648"
         id="path4608" />
      <path
         inkscape:connector-curvature="0"
         style="fill:#ffffff;stroke-width:0.73288655"
         d="m -171.72939,130.06813 a 15.984256,15.984256 0 0 1 -17.15688,-6.36145 14.804309,14.804309 0 0 1 -2.54312,-11.19851 13.924845,13.924845 0 0 1 0.47638,-1.88351 l 0.3811,-1.15797 1.03337,0.73289 a 25.885554,25.885554 0 0 0 7.87853,3.93561 l 0.73289,0.22718 -0.0733,0.73289 a 4.5438968,4.5438968 0 0 0 0.8135,2.99018 4.8150649,4.8150649 0 0 0 5.22549,1.96413 4.3973195,4.3973195 0 0 0 1.23125,-0.54233 l 20.10307,-12.83284 a 4.2214267,4.2214267 0 0 0 1.89817,-2.80696 4.4632793,4.4632793 0 0 0 -0.73287,-3.37128 4.8223937,4.8223937 0 0 0 -5.17419,-1.920159 4.5512257,4.5512257 0 0 0 -1.23858,0.542342 l -7.70996,4.895667 a 14.569786,14.569786 0 0 1 -4.08951,1.79558 15.991585,15.991585 0 0 1 -17.17153,-6.361457 14.804309,14.804309 0 0 1 -2.50647,-11.198503 13.924845,13.924845 0 0 1 6.27351,-9.307658 l 20.11041,-12.832843 a 14.569786,14.569786 0 0 1 4.0895,-1.795573 15.984256,15.984256 0 0 1 17.1642,6.361456 14.804309,14.804309 0 0 1 2.54312,11.198507 13.924845,13.924845 0 0 1 -0.47637,1.883518 l -0.38111,1.157961 -1.03337,-0.732886 a 25.885554,25.885554 0 0 0 -7.87852,-3.935602 l -0.73289,-0.227194 0.0733,-0.732887 a 4.5438968,4.5438968 0 0 0 -0.81351,-2.990177 4.8150649,4.8150649 0 0 0 -5.17417,-1.920163 4.3973195,4.3973195 0 0 0 -1.23125,0.542336 l -20.15438,12.788873 a 4.1847824,4.1847824 0 0 0 -1.89085,2.806952 4.3973195,4.3973195 0 0 0 0.73289,3.371284 4.8223937,4.8223937 0 0 0 5.17418,1.920157 4.5512257,4.5512257 0 0 0 1.23857,-0.542332 l 7.68065,-4.895685 a 14.569786,14.569786 0 0 1 4.08951,-1.795571 15.991585,15.991585 0 0 1 17.17154,6.361453 14.804309,14.804309 0 0 1 2.52845,11.198504 13.924845,13.924845 0 0 1 -6.2735,9.30766 l -20.11041,12.83285 a 14.569786,14.569786 0 0 1 -4.08951,1.79556"
         id="path4610" />
      <text
         xml:space="preserve"
         style="font-style:normal;font-variant:normal;font-weight:bold;font-stretch:normal;font-size:48px;line-height:24.98267746px;font-family:'Sitka Display';-inkscape-font-specification:'Sitka Display Bold';letter-spacing:0px;word-spacing:0px;fill:#999999;fill-opacity:1;stroke:none"
         x="-237.52937"
         y="106.07626"
         id="text4644"><tspan
           sodipodi:role="line"
           id="tspan4642"
           x="-237.52937"
           y="106.07626">+</tspan></text>
      <text
         xml:space="preserve"
         style="font-style:normal;font-variant:normal;font-weight:bold;font-stretch:normal;font-size:48px;line-height:24.98267746px;font-family:'Sitka Display';-inkscape-font-specification:'Sitka Display, Bold';font-variant-ligatures:normal;font-variant-caps:normal;font-variant-numeric:normal;font-feature-settings:normal;text-align:start;letter-spacing:0px;word-spacing:0px;writing-mode:lr-tb;text-anchor:start;fill:#999999;fill-opacity:1;stroke:none"
         x="-121.48286"
         y="106.48493"
         id="text4644-5"><tspan
           sodipodi:role="line"
           id="tspan4664"
           x="-121.48286"
           y="106.48493">=</tspan></text>
    </g>
  </g>
</svg>
