<?xml version="1.0" encoding="UTF-8" standalone="no"?>
<svg
   xmlns:dc="http://purl.org/dc/elements/1.1/"
   xmlns:cc="http://creativecommons.org/ns#"
   xmlns:rdf="http://www.w3.org/1999/02/22-rdf-syntax-ns#"
   xmlns:svg="http://www.w3.org/2000/svg"
   xmlns="http://www.w3.org/2000/svg"
   xmlns:sodipodi="http://sodipodi.sourceforge.net/DTD/sodipodi-0.dtd"
   xmlns:inkscape="http://www.inkscape.org/namespaces/inkscape"
   viewBox="0 0 81.376305 82.123635"
   version="1.1"
   id="svg3688"
   sodipodi:docname="logo.svg"
   inkscape:version="0.92.4 (5da689c313, 2019-01-14)"
   width="81.376305"
   height="82.123634">
  <metadata
     id="metadata3694">
    <rdf:RDF>
      <cc:Work
         rdf:about="">
        <dc:format>image/svg+xml</dc:format>
        <dc:type
           rdf:resource="http://purl.org/dc/dcmitype/StillImage" />
        <dc:title />
      </cc:Work>
    </rdf:RDF>
  </metadata>
  <defs
     id="defs3692" />
  <sodipodi:namedview
     pagecolor="#ffffff"
     bordercolor="#666666"
     borderopacity="1"
     objecttolerance="10"
     gridtolerance="10"
     guidetolerance="10"
     inkscape:pageopacity="0"
     inkscape:pageshadow="2"
     inkscape:window-width="1600"
     inkscape:window-height="900"
     id="namedview3690"
     showgrid="false"
     inkscape:zoom="3.8064516"
     inkscape:cx="-32.441277"
     inkscape:cy="49.773158"
     inkscape:window-x="0"
     inkscape:window-y="0"
     inkscape:window-maximized="1"
     inkscape:current-layer="g4576"
     fit-margin-top="0"
     fit-margin-left="0"
     fit-margin-right="0"
     fit-margin-bottom="0" />
  <g
     id="g3715"
     transform="translate(128.18404,-53.579475)">
    <g
       id="g4576">
      <path
         id="path3711"
         d="m -92.562232,128.11292 c -6.620789,1.72122 -13.612288,-0.87108 -17.510538,-6.49258 -2.36773,-3.30538 -3.3034,-7.42551 -2.59552,-11.42933 0.1171,-0.65133 0.27957,-1.29368 0.48618,-1.92235 l 0.38897,-1.18184 1.05467,0.748 c 2.43121,1.78837 5.15086,3.14695 8.04093,4.01672 l 0.74797,0.23188 -0.0748,0.748 c -0.0895,1.08312 0.20447,2.16324 0.83027,3.0518 1.16948,1.7357 3.30996,2.54027 5.333195,2.00462 0.44479,-0.11894 0.868628,-0.30564 1.256633,-0.5535 l 20.517454,-13.09737 c 1.01751,-0.64248 1.719954,-1.68122 1.937303,-2.8648 0.221941,-1.20083 -0.04755,-2.440482 -0.747994,-3.440782 -1.175534,-1.69551 -3.283793,-2.477894 -5.280831,-1.95974 -0.446579,0.120534 -0.872651,0.307098 -1.264109,0.553514 l -7.86889,4.996608 c -1.288814,0.82174 -2.696618,1.43986 -4.173803,1.83257 -6.625361,1.72582 -13.623628,-0.86678 -17.525478,-6.49258 -2.35467,-3.310902 -3.27675,-7.430571 -2.55814,-11.429338 0.70701,-3.92456 3.03032,-7.371532 6.40281,-9.499515 0,0 4.3259,-2.500421 5.579839,-3.594756 1.253937,-1.094335 1.501341,-2.14721 1.80661,-3.366564 0.337453,-1.347905 -0.38479,-4.608183 -0.38479,-4.608183 0,0 2.536479,2.11809 3.855007,2.417535 1.525637,0.34648 2.652323,0.649505 4.152547,-0.254513 1.500223,-0.904017 5.515733,-3.690881 5.515733,-3.690881 1.288814,-0.821743 2.696619,-1.439866 4.173803,-1.832584 6.623137,-1.724676 13.618663,0.868031 17.518002,6.492582 2.367741,3.305372 3.303402,7.425515 2.595538,11.429339 -0.117112,0.651318 -0.279572,1.29366 -0.486194,1.922342 l -0.388959,1.181828 -1.05467,-0.747992 c -2.431198,-1.788376 -5.150859,-3.146943 -8.040928,-4.016726 l -0.747992,-0.231877 0.07479,-0.747993 c 0.08938,-1.083131 -0.204466,-2.163256 -0.830271,-3.051812 -1.174127,-1.69733 -3.283678,-2.480194 -5.280833,-1.959743 -0.44479,0.118954 -0.868625,0.305645 -1.25663,0.553517 l -20.569823,13.052481 c -1.01795,0.640615 -1.718609,1.68075 -1.929829,2.864815 -0.22976,1.20093 0.0403,2.443626 0.748,3.440768 1.175529,1.695515 3.283802,2.4779 5.280842,1.959743 0.446576,-0.120535 0.872645,-0.3071 1.264102,-0.553514 l 7.838975,-4.996596 c 1.288814,-0.821744 2.696619,-1.439865 4.173805,-1.832585 6.625359,-1.725827 13.623638,0.866792 17.52548,6.492582 2.362509,3.307587 3.292734,7.427554 2.580578,11.42935 -0.70701,3.92455 -3.030325,7.37153 -6.402822,9.49951 0,0 -3.642471,2.49221 -4.94998,3.45559 -1.307509,0.96338 -1.787244,1.95442 -1.932383,3.30419 -0.145137,1.34976 0.623968,4.29276 0.623968,4.29276 0,0 -2.468149,-1.43901 -4.120502,-2.02658 -1.330513,-0.47312 -2.96579,-0.44851 -5.014807,0.79706 -1.63188,0.992 -5.131233,3.27433 -5.131233,3.27433 -1.288815,0.82176 -2.696622,1.43987 -4.173809,1.83259"
         style="fill:#ffffff;stroke-width:0.74799329"
         inkscape:connector-curvature="0"
         sodipodi:nodetypes="cccccccccccccccccccccczscszccccccccccccccccccccccczscsscc" />
      <g
         id="g1870"
         transform="matrix(0.73353817,0,0,0.73353817,-76.945989,-48.101742)">
        <path
           sodipodi:nodetypes="cssscccccccccccccccccccc"
           inkscape:connector-curvature="0"
           id="path877"
           d="m -36.359846,145.10741 c 0,0 0.797609,3.9547 0.488577,5.84085 -0.249665,1.52382 0.0047,3.0579 -2.023555,4.34868 l -7.734164,4.92142 c -7.086311,4.50918 -12.051303,11.76734 -13.474759,20.02338 -1.233661,6.9275 -0.190126,14.04446 3.13126,20.21277 -2.277519,3.41629 -3.795491,7.21263 -4.45977,11.1983 -1.518353,8.44585 0.474779,17.17603 5.409424,24.10351 10.43867,14.89882 30.935429,19.26422 45.7393602,9.86942 l 6.0265299,-3.82456 c 2.59677141,-1.5785 4.6687718,-1.60979 6.3549589,-1.0102 2.094064,0.74464 5.221813,2.56923 5.221813,2.56923 0,0 -0.9740799,-3.73035 -0.7901505,-5.44092 0.1839579,-1.71058 0.6422535,-3.20176 2.2992882,-4.42267 l 6.9837563,-4.47811 c 7.117295,-4.46012 12.053866,-11.76679 13.477321,-20.02282 1.233662,-6.92748 0.18913,-14.04602 -3.132256,-20.21432 2.277519,-3.4163 3.796488,-7.21108 4.460767,-11.19675 1.61324,-8.54073 -0.381344,-17.17679 -5.410866,-24.19918 -10.343775,-14.80393 -30.841654,-19.26402 -45.740483,-9.77432 l -6.677532,4.2377 c -1.901252,1.14567 -3.329357,0.76279 -5.262799,0.32368 -1.670994,-0.37949 -4.886712,-3.06508 -4.886712,-3.06508 z"
           style="fill:#3c5afd;fill-opacity:1;stroke:none;stroke-width:0.23724253;stroke-opacity:1" />
        <path
           sodipodi:nodetypes="cccccccccccccccccccccczscszccccccccccccccccccccccczscsscc"
           inkscape:connector-curvature="0"
           style="fill:#ffffff;fill-opacity:1;stroke:none;stroke-width:0.23724253;stroke-miterlimit:4;stroke-dasharray:none;stroke-opacity:1"
           d="m -22.051122,237.12119 c -8.390661,2.18132 -17.25112,-1.10396 -22.191458,-8.22819 -3.000672,-4.18897 -4.186458,-9.41049 -3.289349,-14.48461 0.1484,-0.82544 0.354308,-1.63951 0.616147,-2.43624 l 0.492953,-1.49776 1.336595,0.94795 c 3.081127,2.26644 6.527786,3.9882 10.19044,5.09046 l 0.947908,0.29388 -0.0948,0.94794 c -0.113421,1.37268 0.259126,2.74152 1.052228,3.86762 1.482063,2.19969 4.19477,3.21934 6.758859,2.54049 0.563698,-0.15072 1.100825,-0.38734 1.592552,-0.70146 L 1.3631192,206.86272 c 1.289527,-0.8142 2.179737,-2.13065 2.455185,-3.63063 0.2812748,-1.52184 -0.06026,-3.09286 -0.9479547,-4.36056 -1.4897692,-2.14876 -4.1616042,-3.14029 -6.6924982,-2.48362 -0.5659657,0.15276 -1.1059297,0.38919 -1.6020228,0.70148 l -9.9724135,6.33227 c -1.633356,1.04141 -3.417476,1.82477 -5.289529,2.32246 -8.396459,2.18717 -17.265506,-1.09848 -22.21038,-8.22817 -2.984132,-4.19598 -4.152703,-9.41691 -3.241996,-14.48462 0.896009,-4.97367 3.840388,-9.3421 8.114397,-12.03893 0,0 5.482315,-3.16883 7.07145,-4.5557 1.589137,-1.38687 1.902676,-2.72119 2.289562,-4.26652 0.427644,-1.70821 -0.487666,-5.84003 -0.487666,-5.84003 0,0 3.214551,2.68429 4.885545,3.06378 1.933441,0.43911 3.361338,0.82314 5.26259,-0.32254 1.901262,-1.14567 6.990206,-4.67753 6.990206,-4.67753 1.633348,-1.04139 3.4174785,-1.82477 5.2895309,-2.32246 8.3936314,-2.18572 17.2592051,1.10007 22.2009011,8.22817 3.000682,4.18897 4.186467,9.4105 3.289386,14.48463 -0.148419,0.82542 -0.354316,1.63947 -0.616166,2.43621 l -0.492932,1.49776 -1.336607,-0.94794 c -3.081096,-2.26645 -6.5277847,-3.98819 -10.1904304,-5.09048 l -0.9478977,-0.29387 0.094802,-0.94794 c 0.1132977,-1.37267 -0.2591352,-2.74154 -1.052218,-3.86763 -1.4880137,-2.15105 -4.16147137,-3.14319 -6.6925267,-2.48361 -0.5636882,0.15075 -1.1008243,0.38735 -1.5925427,0.70148 l -26.0685485,16.5417 c -1.290068,0.81184 -2.17802,2.13005 -2.445704,3.63064 -0.291183,1.52196 0.05106,3.09685 0.947944,4.36054 1.489789,2.14877 4.161633,3.1403 6.692518,2.48363 0.565956,-0.15275 1.10593,-0.38919 1.602023,-0.70148 l 9.93449,-6.33228 c 1.633348,-1.04139 3.4174782,-1.82477 5.2895403,-2.32248 8.39644043,-2.18717 17.2654968,1.09851 22.2103907,8.22818 2.994048,4.19178 4.172935,9.41309 3.270407,14.48464 -0.895998,4.97366 -3.840387,9.34209 -8.1144063,12.03892 0,0 -4.6161897,3.15843 -6.273215,4.37933 -1.6570348,1.22092 -2.26499251,2.47688 -2.44894088,4.18746 -0.18393888,1.71058 0.79075788,5.44031 0.79075788,5.44031 0,0 -3.127929,-1.8237 -5.221993,-2.56833 -1.6861871,-0.5996 -3.758605,-0.5684 -6.3553477,1.01013 -2.068119,1.25718 -6.502922,4.14963 -6.502922,4.14963 -1.633355,1.04139 -3.417485,1.82477 -5.289557,2.32248"
           id="path3711-5" />
      </g>
    </g>
  </g>
</svg>
