<?xml version="1.0" encoding="UTF-8" standalone="no"?>
<svg
   xmlns:dc="http://purl.org/dc/elements/1.1/"
   xmlns:cc="http://creativecommons.org/ns#"
   xmlns:rdf="http://www.w3.org/1999/02/22-rdf-syntax-ns#"
   xmlns:svg="http://www.w3.org/2000/svg"
   xmlns="http://www.w3.org/2000/svg"
   xmlns:sodipodi="http://sodipodi.sourceforge.net/DTD/sodipodi-0.dtd"
   xmlns:inkscape="http://www.inkscape.org/namespaces/inkscape"
   viewBox="0 0 331.46924 87.864671"
   version="1.1"
   id="svg3688"
   sodipodi:docname="logos_combined.svg"
   inkscape:version="0.92.4 (5da689c313, 2019-01-14)"
   width="331.46924"
   height="87.86467"
   inkscape:export-filename="C:\Users\dpers\Pictures\new_logo-red.png"
   inkscape:export-xdpi="200"
   inkscape:export-ydpi="200">
  <metadata
     id="metadata3694">
    <rdf:RDF>
      <cc:Work
         rdf:about="">
        <dc:format>image/svg+xml</dc:format>
        <dc:type
           rdf:resource="http://purl.org/dc/dcmitype/StillImage" />
        <dc:title />
      </cc:Work>
    </rdf:RDF>
  </metadata>
  <defs
     id="defs3692" />
  <sodipodi:namedview
     pagecolor="#ffffff"
     bordercolor="#666666"
     borderopacity="1"
     objecttolerance="10"
     gridtolerance="10"
     guidetolerance="10"
     inkscape:pageopacity="0"
     inkscape:pageshadow="2"
     inkscape:window-width="1600"
     inkscape:window-height="900"
     id="namedview3690"
     showgrid="false"
     inkscape:zoom="1.9032258"
     inkscape:cx="185.45287"
     inkscape:cy="-24.594753"
     inkscape:window-x="0"
     inkscape:window-y="0"
     inkscape:window-maximized="1"
     inkscape:current-layer="g4576"
     fit-margin-top="0"
     fit-margin-left="0"
     fit-margin-right="0"
     fit-margin-bottom="0" />
  <g
     id="g3715"
     transform="translate(331.58021,-51.313279)">
    <g
       id="g4576">
      <g
         id="g47"
         transform="translate(0,-1.050761)">
        <rect
           y="66.669472"
           x="-314.24124"
           height="57.796612"
           width="60.423729"
           id="rect5209"
           style="opacity:1;vector-effect:none;fill:#ffffff;fill-opacity:1;stroke:#ffffff;stroke-width:3.77952766;stroke-linecap:butt;stroke-linejoin:miter;stroke-miterlimit:4;stroke-dasharray:none;stroke-dashoffset:0;stroke-opacity:1" />
        <g
           transform="matrix(0.30217196,0,0,0.30217196,-322.64801,57.618364)"
           id="g4580">
          <path
             style="fill:#3c5afd"
             inkscape:connector-curvature="0"
             id="path4578"
             d="m 237.24831,18.751687 c 12.04034,12.040333 18.2909,27.122748 18.74742,45.247246 V 192.00107 c -0.45652,18.12023 -6.70708,33.20691 -18.74742,45.24724 C 225.20798,249.28865 210.1213,255.53921 191.9968,256 H 63.998933 C 45.874435,255.53921 30.79202,249.28865 18.751687,237.24831 6.7113548,225.20798 0.46079232,210.1213 0,192.00107 V 63.998933 C 0.46079232,45.874435 6.7113548,30.79202 18.751687,18.751687 30.79202,6.7113548 45.874435,0.46079232 63.998933,0 H 191.9968 c 18.1245,0.46079232 33.21118,6.7113548 45.25151,18.751687 z M 219.59314,121.75157 c -4.0234,-4.00206 -6.11403,-9.02385 -6.28043,-15.06535 V 63.998933 c -0.128,-6.041499 -2.20156,-11.071815 -6.2207,-15.090948 -4.01913,-4.0234 -9.05371,-6.092699 -15.09521,-6.220696 H 170.68515 V 149.31378 L 85.314845,42.687289 H 63.998933 c -6.041499,0.127997 -11.071815,2.197296 -15.090948,6.220696 -4.0234,4.019133 -6.092699,9.049449 -6.220696,15.090948 v 42.687287 c -0.166398,6.0415 -2.25703,11.06329 -6.280429,15.06535 -4.019133,3.9978 -9.049449,6.0799 -15.090949,6.2463 6.0415,0.17066 11.071816,2.25276 15.090949,6.25056 4.023399,4.00207 6.114031,9.02385 6.280429,15.06535 v 42.68729 c 0.127997,6.03723 2.197296,11.07181 6.220696,15.09094 4.019133,4.01914 9.049449,6.0927 15.090948,6.2207 H 85.314845 V 106.68622 l 85.370305,106.62649 h 21.31165 c 6.0415,-0.128 11.07608,-2.20156 15.09521,-6.2207 4.01914,-4.01913 6.0927,-9.05371 6.2207,-15.09094 v -42.68729 c 0.1664,-6.0415 2.25703,-11.06328 6.28043,-15.06535 4.01913,-3.9978 9.04945,-6.0799 15.09095,-6.25056 -6.0415,-0.1664 -11.07182,-2.2485 -15.09095,-6.2463 z" />
        </g>
      </g>
      <g
         id="g42"
         transform="translate(0,-1.9525604)">
        <path
           id="path4608"
           d="m -134.41082,65.390899 c -8.0251,-11.491661 -23.88477,-14.899584 -35.35444,-7.592705 l -20.13973,12.840173 a 23.056612,23.056612 0 0 0 -10.4363,15.471237 24.346492,24.346492 0 0 0 2.39654,15.625136 23.100585,23.100585 0 0 0 -3.45189,8.64807 24.632318,24.632318 0 0 0 4.19943,18.62265 c 8.06175,11.49166 23.8921,14.89957 35.36178,7.59269 l 20.13972,-12.84017 a 23.071269,23.071269 0 0 0 10.43631,-15.47124 24.346492,24.346492 0 0 0 -2.39654,-15.639785 23.100585,23.100585 0 0 0 3.4519,-8.648066 24.603002,24.603002 0 0 0 -4.20678,-18.622648"
           style="fill:#ff3e00;stroke-width:0.73288655"
           inkscape:connector-curvature="0" />
        <path
           id="path4610"
           d="m -171.72939,130.06813 a 15.984256,15.984256 0 0 1 -17.15688,-6.36145 14.804309,14.804309 0 0 1 -2.54312,-11.19851 13.924845,13.924845 0 0 1 0.47638,-1.88351 l 0.3811,-1.15797 1.03337,0.73289 a 25.885554,25.885554 0 0 0 7.87853,3.93561 l 0.73289,0.22718 -0.0733,0.73289 a 4.5438968,4.5438968 0 0 0 0.8135,2.99018 4.8150649,4.8150649 0 0 0 5.22549,1.96413 4.3973195,4.3973195 0 0 0 1.23125,-0.54233 l 20.10307,-12.83284 a 4.2214267,4.2214267 0 0 0 1.89817,-2.80696 4.4632793,4.4632793 0 0 0 -0.73287,-3.37128 4.8223937,4.8223937 0 0 0 -5.17419,-1.920159 4.5512257,4.5512257 0 0 0 -1.23858,0.542342 l -7.70996,4.895667 a 14.569786,14.569786 0 0 1 -4.08951,1.79558 15.991585,15.991585 0 0 1 -17.17153,-6.361457 14.804309,14.804309 0 0 1 -2.50647,-11.198503 13.924845,13.924845 0 0 1 6.27351,-9.307658 l 20.11041,-12.832843 a 14.569786,14.569786 0 0 1 4.0895,-1.795573 15.984256,15.984256 0 0 1 17.1642,6.361456 14.804309,14.804309 0 0 1 2.54312,11.198507 13.924845,13.924845 0 0 1 -0.47637,1.883518 l -0.38111,1.157961 -1.03337,-0.732886 a 25.885554,25.885554 0 0 0 -7.87852,-3.935602 l -0.73289,-0.227194 0.0733,-0.732887 a 4.5438968,4.5438968 0 0 0 -0.81351,-2.990177 4.8150649,4.8150649 0 0 0 -5.17417,-1.920163 4.3973195,4.3973195 0 0 0 -1.23125,0.542336 l -20.15438,12.788873 a 4.1847824,4.1847824 0 0 0 -1.89085,2.806952 4.3973195,4.3973195 0 0 0 0.73289,3.371284 4.8223937,4.8223937 0 0 0 5.17418,1.920157 4.5512257,4.5512257 0 0 0 1.23857,-0.542332 l 7.68065,-4.895685 a 14.569786,14.569786 0 0 1 4.08951,-1.795571 15.991585,15.991585 0 0 1 17.17154,6.361453 14.804309,14.804309 0 0 1 2.52845,11.198504 13.924845,13.924845 0 0 1 -6.2735,9.30766 l -20.11041,12.83285 a 14.569786,14.569786 0 0 1 -4.08951,1.79556"
           style="fill:#ffffff;stroke-width:0.73288655"
           inkscape:connector-curvature="0" />
      </g>
      <text
         xml:space="preserve"
         style="font-style:normal;font-variant:normal;font-weight:bold;font-stretch:normal;font-size:48px;line-height:24.98267746px;font-family:'Sitka Display';-inkscape-font-specification:'Sitka Display Bold';letter-spacing:0px;word-spacing:0px;fill:#999999;fill-opacity:1;stroke:none"
         x="-237.52937"
         y="112.21362"
         id="text4644"><tspan
           sodipodi:role="line"
           id="tspan4642"
           x="-237.52937"
           y="112.21362">+</tspan></text>
      <text
         xml:space="preserve"
         style="font-style:normal;font-variant:normal;font-weight:bold;font-stretch:normal;font-size:48px;line-height:24.98267746px;font-family:'Sitka Display';-inkscape-font-specification:'Sitka Display, Bold';font-variant-ligatures:normal;font-variant-caps:normal;font-variant-numeric:normal;font-feature-settings:normal;text-align:start;letter-spacing:0px;word-spacing:0px;writing-mode:lr-tb;text-anchor:start;fill:#999999;fill-opacity:1;stroke:none"
         x="-121.48286"
         y="112.14162"
         id="text4644-5"><tspan
           sodipodi:role="line"
           id="tspan4664"
           x="-121.48286"
           y="112.14162">=</tspan></text>
      <g
         id="g1870"
         transform="matrix(0.77259816,0,0,0.77259816,-33.628125,-55.098308)">
        <path
           sodipodi:nodetypes="cssscccccccccccccccccccc"
           inkscape:connector-curvature="0"
           id="path877"
           d="m -36.359846,145.10741 c 0,0 0.797609,3.9547 0.488577,5.84085 -0.249665,1.52382 0.0047,3.0579 -2.023555,4.34868 l -7.734164,4.92142 c -7.086311,4.50918 -12.051303,11.76734 -13.474759,20.02338 -1.233661,6.9275 -0.190126,14.04446 3.13126,20.21277 -2.277519,3.41629 -3.795491,7.21263 -4.45977,11.1983 -1.518353,8.44585 0.474779,17.17603 5.409424,24.10351 10.43867,14.89882 30.935429,19.26422 45.7393602,9.86942 l 6.0265299,-3.82456 c 2.59677141,-1.5785 4.6687718,-1.60979 6.3549589,-1.0102 2.094064,0.74464 5.221813,2.56923 5.221813,2.56923 0,0 -0.9740799,-3.73035 -0.7901505,-5.44092 0.1839579,-1.71058 0.6422535,-3.20176 2.2992882,-4.42267 l 6.9837563,-4.47811 c 7.117295,-4.46012 12.053866,-11.76679 13.477321,-20.02282 1.233662,-6.92748 0.18913,-14.04602 -3.132256,-20.21432 2.277519,-3.4163 3.796488,-7.21108 4.460767,-11.19675 1.61324,-8.54073 -0.381344,-17.17679 -5.410866,-24.19918 -10.343775,-14.80393 -30.841654,-19.26402 -45.740483,-9.77432 l -6.677532,4.2377 c -1.901252,1.14567 -3.329357,0.76279 -5.262799,0.32368 -1.670994,-0.37949 -4.886712,-3.06508 -4.886712,-3.06508 z"
           style="fill:#3c5afd;fill-opacity:1;stroke:none;stroke-width:0.23724253;stroke-opacity:1" />
        <path
           sodipodi:nodetypes="cccccccccccccccccccccczscszccccccccccccccccccccccczscsscc"
           inkscape:connector-curvature="0"
           style="fill:#ffffff;fill-opacity:1;stroke:none;stroke-width:0.23724253;stroke-miterlimit:4;stroke-dasharray:none;stroke-opacity:1"
           d="m -22.051122,237.12119 c -8.390661,2.18132 -17.25112,-1.10396 -22.191458,-8.22819 -3.000672,-4.18897 -4.186458,-9.41049 -3.289349,-14.48461 0.1484,-0.82544 0.354308,-1.63951 0.616147,-2.43624 l 0.492953,-1.49776 1.336595,0.94795 c 3.081127,2.26644 6.527786,3.9882 10.19044,5.09046 l 0.947908,0.29388 -0.0948,0.94794 c -0.113421,1.37268 0.259126,2.74152 1.052228,3.86762 1.482063,2.19969 4.19477,3.21934 6.758859,2.54049 0.563698,-0.15072 1.100825,-0.38734 1.592552,-0.70146 L 1.3631192,206.86272 c 1.289527,-0.8142 2.179737,-2.13065 2.455185,-3.63063 0.2812748,-1.52184 -0.06026,-3.09286 -0.9479547,-4.36056 -1.4897692,-2.14876 -4.1616042,-3.14029 -6.6924982,-2.48362 -0.5659657,0.15276 -1.1059297,0.38919 -1.6020228,0.70148 l -9.9724135,6.33227 c -1.633356,1.04141 -3.417476,1.82477 -5.289529,2.32246 -8.396459,2.18717 -17.265506,-1.09848 -22.21038,-8.22817 -2.984132,-4.19598 -4.152703,-9.41691 -3.241996,-14.48462 0.896009,-4.97367 3.840388,-9.3421 8.114397,-12.03893 0,0 5.482315,-3.16883 7.07145,-4.5557 1.589137,-1.38687 1.902676,-2.72119 2.289562,-4.26652 0.427644,-1.70821 -0.487666,-5.84003 -0.487666,-5.84003 0,0 3.214551,2.68429 4.885545,3.06378 1.933441,0.43911 3.361338,0.82314 5.26259,-0.32254 1.901262,-1.14567 6.990206,-4.67753 6.990206,-4.67753 1.633348,-1.04139 3.4174785,-1.82477 5.2895309,-2.32246 8.3936314,-2.18572 17.2592051,1.10007 22.2009011,8.22817 3.000682,4.18897 4.186467,9.4105 3.289386,14.48463 -0.148419,0.82542 -0.354316,1.63947 -0.616166,2.43621 l -0.492932,1.49776 -1.336607,-0.94794 c -3.081096,-2.26645 -6.5277847,-3.98819 -10.1904304,-5.09048 l -0.9478977,-0.29387 0.094802,-0.94794 c 0.1132977,-1.37267 -0.2591352,-2.74154 -1.052218,-3.86763 -1.4880137,-2.15105 -4.16147137,-3.14319 -6.6925267,-2.48361 -0.5636882,0.15075 -1.1008243,0.38735 -1.5925427,0.70148 l -26.0685485,16.5417 c -1.290068,0.81184 -2.17802,2.13005 -2.445704,3.63064 -0.291183,1.52196 0.05106,3.09685 0.947944,4.36054 1.489789,2.14877 4.161633,3.1403 6.692518,2.48363 0.565956,-0.15275 1.10593,-0.38919 1.602023,-0.70148 l 9.93449,-6.33228 c 1.633348,-1.04139 3.4174782,-1.82477 5.2895403,-2.32248 8.39644043,-2.18717 17.2654968,1.09851 22.2103907,8.22818 2.994048,4.19178 4.172935,9.41309 3.270407,14.48464 -0.895998,4.97366 -3.840387,9.34209 -8.1144063,12.03892 0,0 -4.6161897,3.15843 -6.273215,4.37933 -1.6570348,1.22092 -2.26499251,2.47688 -2.44894088,4.18746 -0.18393888,1.71058 0.79075788,5.44031 0.79075788,5.44031 0,0 -3.127929,-1.8237 -5.221993,-2.56833 -1.6861871,-0.5996 -3.758605,-0.5684 -6.3553477,1.01013 -2.068119,1.25718 -6.502922,4.14963 -6.502922,4.14963 -1.633355,1.04139 -3.417485,1.82477 -5.289557,2.32248"
           id="path3711-7" />
      </g>
    </g>
  </g>
</svg>
