<?xml version="1.0" encoding="UTF-8" standalone="no"?>
<!-- Generator: Adobe Illustrator 23.0.2, SVG Export Plug-In . SVG Version: 6.00 Build 0)  -->

<svg
   xmlns:dc="http://purl.org/dc/elements/1.1/"
   xmlns:cc="http://creativecommons.org/ns#"
   xmlns:rdf="http://www.w3.org/1999/02/22-rdf-syntax-ns#"
   xmlns:svg="http://www.w3.org/2000/svg"
   xmlns="http://www.w3.org/2000/svg"
   xmlns:sodipodi="http://sodipodi.sourceforge.net/DTD/sodipodi-0.dtd"
   xmlns:inkscape="http://www.inkscape.org/namespaces/inkscape"
   version="1.1"
   id="Layer_1"
   x="0px"
   y="0px"
   viewBox="0 0 98.399999 118.3"
   xml:space="preserve"
   sodipodi:docname="svelte-native-logo-outline.svg"
   inkscape:version="0.92.0 r15299"
   width="98.400002"
   height="118.3"><metadata
     id="metadata6853"><rdf:RDF><cc:Work
         rdf:about=""><dc:format>image/svg+xml</dc:format><dc:type
           rdf:resource="http://purl.org/dc/dcmitype/StillImage" /><dc:title></dc:title></cc:Work></rdf:RDF></metadata><defs
     id="defs6851" /><sodipodi:namedview
     pagecolor="#ffffff"
     bordercolor="#666666"
     borderopacity="1"
     objecttolerance="10"
     gridtolerance="10"
     guidetolerance="10"
     inkscape:pageopacity="0"
     inkscape:pageshadow="2"
     inkscape:window-width="1601"
     inkscape:window-height="891"
     id="namedview6849"
     showgrid="false"
     inkscape:snap-nodes="false"
     inkscape:snap-others="false"
     inkscape:zoom="1.9949281"
     inkscape:cx="-111.20678"
     inkscape:cy="59.150002"
     inkscape:window-x="1924"
     inkscape:window-y="103"
     inkscape:window-maximized="0"
     inkscape:current-layer="layer2" /><style
     type="text/css"
     id="style6842">
	.st0{fill:none;stroke:#159497;stroke-width:0.25;}
</style><g
     inkscape:groupmode="layer"
     id="layer2"
     inkscape:label="Layer 1"
     style="display:inline"><g
       id="g7121"
       transform="matrix(0.82643453,0,0,0.82643453,0.27494786,9.6909281)"><path
         sodipodi:nodetypes="sccccccccsccs"
         id="path2"
         d="m 108.54053,9.6070447 c 5.42169,5.4713883 8.23628,12.3251593 8.44184,20.5613213 v 58.166907 c -0.20556,8.234225 -3.02015,15.089937 -8.44184,20.561307 -5.42169,5.4714 -12.215117,8.31178 -20.37647,8.52118 H 30.527423 C 22.36608,117.20836 15.574564,114.36798 10.152877,108.89658 4.7311892,103.42521 1.9165977,96.569498 1.7091161,88.335273 V 30.168366 C 1.9165977,21.932204 4.7311892,15.078433 10.152877,9.6070447 15.574564,4.1356607 22.36608,1.2952709 30.527423,1.0858784 H 88.16406 c 8.161353,0.2093925 14.95478,3.0497823 20.37647,8.5211663 z"
         style="fill:none;stroke:#3c5afd;stroke-width:0.25;stroke-miterlimit:4;stroke-dasharray:none;stroke-opacity:1"
         inkscape:connector-curvature="0" /><path
         sodipodi:nodetypes="cccccccccccccccccccccczscszccccccccccccccccccccccczscsscc"
         inkscape:connector-curvature="0"
         style="fill:none;stroke:#3c5afd;stroke-width:0.25;stroke-miterlimit:4;stroke-dasharray:none;stroke-opacity:1"
         d="m 50.773871,106.78516 c -9.378653,2.43819 -19.282432,-1.23393 -24.804482,-9.197038 -3.353998,-4.682219 -4.679417,-10.518575 -3.676673,-16.190169 0.165878,-0.922639 0.396024,-1.832558 0.688697,-2.723097 l 0.550993,-1.67413 1.493988,1.059576 c 3.443921,2.533308 7.296429,4.457798 11.390346,5.689868 l 1.059534,0.328468 -0.105961,1.059576 c -0.126781,1.53429 0.289641,3.064329 1.176116,4.323015 1.656621,2.458694 4.688709,3.59841 7.554721,2.839634 0.630065,-0.168479 1.23044,-0.43295 1.780074,-0.784059 L 76.945131,72.963783 c 1.441349,-0.910103 2.436402,-2.381526 2.744288,-4.058121 0.314389,-1.70103 -0.06743,-3.457055 -1.059576,-4.874025 -1.665192,-2.401768 -4.651638,-3.51005 -7.480537,-2.776062 -0.632601,0.170743 -1.236149,0.435019 -1.79067,0.784079 l -11.146639,7.077924 c -1.825659,1.164032 -3.819886,2.039627 -5.91238,2.595919 C 42.914492,74.1582 33.001122,70.485664 27.473973,62.51646 24.138475,57.826416 22.832307,51.990716 23.85025,46.32628 c 1.001513,-5.559319 4.292587,-10.442113 9.069874,-13.456498 0,0 6.127836,-3.541961 7.904099,-5.092136 1.776263,-1.550177 2.126717,-3.041622 2.559145,-4.768893 0.478014,-1.909369 -0.545072,-6.527702 -0.545072,-6.527702 0,0 3.59304,3.000371 5.460798,3.424549 2.161125,0.490804 3.757133,0.920054 5.882263,-0.360529 2.125145,-1.280582 7.813298,-5.228302 7.813298,-5.228302 1.825659,-1.164037 3.819887,-2.039636 5.912379,-2.59594 9.381981,-2.4430823 19.29146,1.229606 24.815051,9.19704 3.35401,4.68221 4.679416,10.518582 3.676699,16.190182 -0.165892,0.922622 -0.396028,1.832529 -0.688713,2.723086 L 95.159089,41.50525 93.665106,40.445685 C 90.221198,37.912369 86.368677,35.987896 82.27476,34.755809 l -1.059562,-0.328464 0.105961,-1.059566 c 0.126639,-1.534305 -0.289641,-3.064352 -1.176115,-4.323032 -1.663209,-2.404346 -4.651483,-3.513308 -7.480552,-2.776066 -0.630065,0.168504 -1.23044,0.43296 -1.780073,0.784083 L 41.746327,45.5422 c -1.441973,0.907461 -2.43449,2.38086 -2.733693,4.058142 -0.325465,1.701172 0.05709,3.461508 1.059576,4.874005 1.665192,2.401774 4.651654,3.510059 7.480552,2.776066 0.632601,-0.170744 1.236148,-0.435022 1.790655,-0.784078 l 11.104275,-7.077907 c 1.825658,-1.164038 3.819885,-2.039635 5.912378,-2.595941 9.385126,-2.444713 19.29851,1.227851 24.825652,9.19704 3.3466,4.685349 4.664301,10.52147 3.655506,16.190198 -1.00151,5.559304 -4.292593,10.442109 -9.069891,13.45649 0,0 -5.159726,3.53033 -7.011874,4.895002 -1.852147,1.364673 -2.531706,2.768526 -2.737304,4.680533 -0.205598,1.911995 0.883882,6.08089 0.883882,6.08089 0,0 -3.496248,-2.038425 -5.836891,-2.870744 -1.884729,-0.670199 -4.201178,-0.635334 -7.103693,1.129079 -2.311633,1.405215 -7.268637,4.638235 -7.268637,4.638235 -1.825658,1.16406 -3.819886,2.03964 -5.912393,2.59595"
         id="path3711" /></g></g></svg>