<?xml version="1.0" encoding="UTF-8" standalone="no"?>
<!-- Created with Inkscape (http://www.inkscape.org/) -->

<svg
   xmlns:dc="http://purl.org/dc/elements/1.1/"
   xmlns:cc="http://creativecommons.org/ns#"
   xmlns:rdf="http://www.w3.org/1999/02/22-rdf-syntax-ns#"
   xmlns:svg="http://www.w3.org/2000/svg"
   xmlns="http://www.w3.org/2000/svg"
   xmlns:sodipodi="http://sodipodi.sourceforge.net/DTD/sodipodi-0.dtd"
   xmlns:inkscape="http://www.inkscape.org/namespaces/inkscape"
   width="118mm"
   height="118mm"
   viewBox="0 0 118 118"
   version="1.1"
   id="svg5082"
   inkscape:version="0.92.4 (5da689c313, 2019-01-14)"
   sodipodi:docname="svelte-native-logo.svg">
  <defs
     id="defs5076" />
  <sodipodi:namedview
     id="base"
     pagecolor="#ffffff"
     bordercolor="#666666"
     borderopacity="1.0"
     inkscape:pageopacity="0.0"
     inkscape:pageshadow="2"
     inkscape:zoom="0.35"
     inkscape:cx="-151.17094"
     inkscape:cy="-58.019466"
     inkscape:document-units="mm"
     inkscape:current-layer="layer1"
     showgrid="false"
     fit-margin-top="0"
     fit-margin-left="0"
     fit-margin-right="0"
     fit-margin-bottom="0"
     inkscape:window-width="1187"
     inkscape:window-height="709"
     inkscape:window-x="89"
     inkscape:window-y="189"
     inkscape:window-maximized="0"
     scale-x="1" />
  <metadata
     id="metadata5079">
    <rdf:RDF>
      <cc:Work
         rdf:about="">
        <dc:format>image/svg+xml</dc:format>
        <dc:type
           rdf:resource="http://purl.org/dc/dcmitype/StillImage" />
        <dc:title />
      </cc:Work>
    </rdf:RDF>
  </metadata>
  <g
     inkscape:label="Layer 1"
     inkscape:groupmode="layer"
     id="layer1"
     transform="translate(-55.397591,55.428361)">
    <g
       id="g1870"
       transform="matrix(1.0364429,0,0,1.0364429,129.30393,-198.11521)">
      <path
         sodipodi:nodetypes="cssscccccccccccccccccccc"
         inkscape:connector-curvature="0"
         id="path877"
         d="m -36.359846,145.10741 c 0,0 0.797609,3.9547 0.488577,5.84085 -0.249665,1.52382 0.0047,3.0579 -2.023555,4.34868 l -7.734164,4.92142 c -7.086311,4.50918 -12.051303,11.76734 -13.474759,20.02338 -1.233661,6.9275 -0.190126,14.04446 3.13126,20.21277 -2.277519,3.41629 -3.795491,7.21263 -4.45977,11.1983 -1.518353,8.44585 0.474779,17.17603 5.409424,24.10351 10.43867,14.89882 30.935429,19.26422 45.7393602,9.86942 l 6.0265299,-3.82456 c 2.59677141,-1.5785 4.6687718,-1.60979 6.3549589,-1.0102 2.094064,0.74464 5.221813,2.56923 5.221813,2.56923 0,0 -0.9740799,-3.73035 -0.7901505,-5.44092 0.1839579,-1.71058 0.6422535,-3.20176 2.2992882,-4.42267 l 6.9837563,-4.47811 c 7.117295,-4.46012 12.053866,-11.76679 13.477321,-20.02282 1.233662,-6.92748 0.18913,-14.04602 -3.132256,-20.21432 2.277519,-3.4163 3.796488,-7.21108 4.460767,-11.19675 1.61324,-8.54073 -0.381344,-17.17679 -5.410866,-24.19918 -10.343775,-14.80393 -30.841654,-19.26402 -45.740483,-9.77432 l -6.677532,4.2377 c -1.901252,1.14567 -3.329357,0.76279 -5.262799,0.32368 -1.670994,-0.37949 -4.886712,-3.06508 -4.886712,-3.06508 z"
         style="fill:#3c5afd;fill-opacity:1;stroke:none;stroke-width:0.23724253;stroke-opacity:1" />
      <path
         sodipodi:nodetypes="cccccccccccccccccccccczscszccccccccccccccccccccccczscsscc"
         inkscape:connector-curvature="0"
         style="fill:#ffffff;fill-opacity:1;stroke:none;stroke-width:0.23724253;stroke-miterlimit:4;stroke-dasharray:none;stroke-opacity:1"
         d="m -22.051122,237.12119 c -8.390661,2.18132 -17.25112,-1.10396 -22.191458,-8.22819 -3.000672,-4.18897 -4.186458,-9.41049 -3.289349,-14.48461 0.1484,-0.82544 0.354308,-1.63951 0.616147,-2.43624 l 0.492953,-1.49776 1.336595,0.94795 c 3.081127,2.26644 6.527786,3.9882 10.19044,5.09046 l 0.947908,0.29388 -0.0948,0.94794 c -0.113421,1.37268 0.259126,2.74152 1.052228,3.86762 1.482063,2.19969 4.19477,3.21934 6.758859,2.54049 0.563698,-0.15072 1.100825,-0.38734 1.592552,-0.70146 L 1.3631192,206.86272 c 1.289527,-0.8142 2.179737,-2.13065 2.455185,-3.63063 0.2812748,-1.52184 -0.06026,-3.09286 -0.9479547,-4.36056 -1.4897692,-2.14876 -4.1616042,-3.14029 -6.6924982,-2.48362 -0.5659657,0.15276 -1.1059297,0.38919 -1.6020228,0.70148 l -9.9724135,6.33227 c -1.633356,1.04141 -3.417476,1.82477 -5.289529,2.32246 -8.396459,2.18717 -17.265506,-1.09848 -22.21038,-8.22817 -2.984132,-4.19598 -4.152703,-9.41691 -3.241996,-14.48462 0.896009,-4.97367 3.840388,-9.3421 8.114397,-12.03893 0,0 5.482315,-3.16883 7.07145,-4.5557 1.589137,-1.38687 1.902676,-2.72119 2.289562,-4.26652 0.427644,-1.70821 -0.487666,-5.84003 -0.487666,-5.84003 0,0 3.214551,2.68429 4.885545,3.06378 1.933441,0.43911 3.361338,0.82314 5.26259,-0.32254 1.901262,-1.14567 6.990206,-4.67753 6.990206,-4.67753 1.633348,-1.04139 3.4174785,-1.82477 5.2895309,-2.32246 8.3936314,-2.18572 17.2592051,1.10007 22.2009011,8.22817 3.000682,4.18897 4.186467,9.4105 3.289386,14.48463 -0.148419,0.82542 -0.354316,1.63947 -0.616166,2.43621 l -0.492932,1.49776 -1.336607,-0.94794 c -3.081096,-2.26645 -6.5277847,-3.98819 -10.1904304,-5.09048 l -0.9478977,-0.29387 0.094802,-0.94794 c 0.1132977,-1.37267 -0.2591352,-2.74154 -1.052218,-3.86763 -1.4880137,-2.15105 -4.16147137,-3.14319 -6.6925267,-2.48361 -0.5636882,0.15075 -1.1008243,0.38735 -1.5925427,0.70148 l -26.0685485,16.5417 c -1.290068,0.81184 -2.17802,2.13005 -2.445704,3.63064 -0.291183,1.52196 0.05106,3.09685 0.947944,4.36054 1.489789,2.14877 4.161633,3.1403 6.692518,2.48363 0.565956,-0.15275 1.10593,-0.38919 1.602023,-0.70148 l 9.93449,-6.33228 c 1.633348,-1.04139 3.4174782,-1.82477 5.2895403,-2.32248 8.39644043,-2.18717 17.2654968,1.09851 22.2103907,8.22818 2.994048,4.19178 4.172935,9.41309 3.270407,14.48464 -0.895998,4.97366 -3.840387,9.34209 -8.1144063,12.03892 0,0 -4.6161897,3.15843 -6.273215,4.37933 -1.6570348,1.22092 -2.26499251,2.47688 -2.44894088,4.18746 -0.18393888,1.71058 0.79075788,5.44031 0.79075788,5.44031 0,0 -3.127929,-1.8237 -5.221993,-2.56833 -1.6861871,-0.5996 -3.758605,-0.5684 -6.3553477,1.01013 -2.068119,1.25718 -6.502922,4.14963 -6.502922,4.14963 -1.633355,1.04139 -3.417485,1.82477 -5.289557,2.32248"
         id="path3711-7" />
    </g>
  </g>
</svg>
