<?xml version="1.0" encoding="UTF-8" standalone="no"?>
<!-- Generator: Adobe Illustrator 23.0.2, SVG Export Plug-In . SVG Version: 6.00 Build 0)  -->

<svg
   xmlns:dc="http://purl.org/dc/elements/1.1/"
   xmlns:cc="http://creativecommons.org/ns#"
   xmlns:rdf="http://www.w3.org/1999/02/22-rdf-syntax-ns#"
   xmlns:svg="http://www.w3.org/2000/svg"
   xmlns="http://www.w3.org/2000/svg"
   xmlns:sodipodi="http://sodipodi.sourceforge.net/DTD/sodipodi-0.dtd"
   xmlns:inkscape="http://www.inkscape.org/namespaces/inkscape"
   version="1.1"
   id="Layer_1"
   x="0px"
   y="0px"
   viewBox="0 0 274.04265 100.25166"
   xml:space="preserve"
   sodipodi:docname="svelte-native-logotype.svg"
   inkscape:version="0.92.0 r15299"><metadata
     id="metadata6269"><rdf:RDF><cc:Work
         rdf:about=""><dc:format>image/svg+xml</dc:format><dc:type
           rdf:resource="http://purl.org/dc/dcmitype/StillImage" /><dc:title></dc:title></cc:Work></rdf:RDF></metadata><defs
     id="defs6267" /><sodipodi:namedview
     pagecolor="#ffffff"
     bordercolor="#666666"
     borderopacity="1"
     objecttolerance="10"
     gridtolerance="10"
     guidetolerance="10"
     inkscape:pageopacity="0"
     inkscape:pageshadow="2"
     inkscape:window-width="1481"
     inkscape:window-height="774"
     id="namedview6265"
     showgrid="false"
     inkscape:zoom="1.7098133"
     inkscape:cx="162.17999"
     inkscape:cy="67.506791"
     inkscape:window-x="1779"
     inkscape:window-y="135"
     inkscape:window-maximized="0"
     inkscape:current-layer="text5083-2"
     fit-margin-top="0"
     fit-margin-left="0"
     fit-margin-right="0"
     fit-margin-bottom="0"
     inkscape:snap-nodes="false"
     inkscape:snap-others="false" /><style
     type="text/css"
     id="style6248">
	.st0{fill:#4A4A55;}
</style><g
     aria-label="NATIVE"
     style="font-style:normal;font-variant:normal;font-weight:normal;font-stretch:normal;font-size:85.33333588px;line-height:24.98267746px;font-family:overpass;-inkscape-font-specification:'overpass, Normal';font-variant-ligatures:normal;font-variant-caps:normal;font-variant-numeric:normal;font-feature-settings:normal;text-align:start;letter-spacing:0px;word-spacing:0px;writing-mode:lr-tb;text-anchor:start;display:inline;fill:#4a4a55;fill-opacity:1;stroke:#4a4a55;stroke-opacity:1"
     id="text4505"
     transform="translate(283.88493,32.336289)"><text
       xml:space="preserve"
       style="font-style:normal;font-variant:normal;font-weight:normal;font-stretch:normal;font-size:85.33333588px;line-height:24.98267746px;font-family:overpass;-inkscape-font-specification:overpass;letter-spacing:0px;word-spacing:0px;fill:#000000;fill-opacity:1;stroke:none"
       x="1.0209172"
       y="60.861553"
       id="text5052"><tspan
         sodipodi:role="line"
         id="tspan5050"
         x="1.0209172"
         y="94.686226"></tspan></text>
<g
       style="font-style:normal;font-variant:normal;font-weight:normal;font-stretch:normal;font-size:medium;line-height:24.98267746px;font-family:overpass;-inkscape-font-specification:'overpass, Normal';font-variant-ligatures:normal;font-variant-caps:normal;font-variant-numeric:normal;font-feature-settings:normal;text-align:start;letter-spacing:0px;word-spacing:0px;writing-mode:lr-tb;text-anchor:start;fill:#4a4a55;fill-opacity:1;stroke:#4a4a55;stroke-opacity:1"
       id="g5733"
       transform="translate(35.426012,72.441302)"><path
         style="font-style:normal;font-variant:normal;font-weight:normal;font-stretch:normal;font-size:85.33333588px;line-height:24.98267746px;font-family:overpass;-inkscape-font-specification:'overpass, Normal';font-variant-ligatures:normal;font-variant-caps:normal;font-variant-numeric:normal;font-feature-settings:normal;text-align:start;letter-spacing:0px;word-spacing:0px;writing-mode:lr-tb;text-anchor:start;display:inline;fill:#4a4a55;fill-opacity:1;stroke:#4a4a55;stroke-opacity:1"
         d="M -275.12028,-5.0259244 V -64.759259 h -7.424 v 42.581335 c 0,1.365333 0.0853,2.816 0.17067,4.352 -0.85333,-1.621334 -1.62133,-2.986667 -2.47467,-4.437334 l -26.45333,-42.496001 h -7.50933 v 59.7333346 h 7.424 V -47.692592 c 0,-1.365333 -0.0853,-2.901333 -0.17067,-4.181333 0.768,1.450667 1.62133,2.901333 2.38933,4.181333 l 26.88,42.6666676 z"
         id="path5066-8"
         inkscape:connector-curvature="0" /><path
         style="font-style:normal;font-variant:normal;font-weight:normal;font-stretch:normal;font-size:85.33333588px;line-height:24.98267746px;font-family:overpass;-inkscape-font-specification:'overpass, Normal';font-variant-ligatures:normal;font-variant-caps:normal;font-variant-numeric:normal;font-feature-settings:normal;text-align:start;letter-spacing:0px;word-spacing:0px;writing-mode:lr-tb;text-anchor:start;display:inline;fill:#4a4a55;fill-opacity:1;stroke:#4a4a55;stroke-opacity:1"
         d="m -222.34561,-5.0259244 h 7.59467 l -21.16267,-59.7333346 h -6.912 l -21.16267,59.7333346 h 7.76534 l 5.03467,-14.5919996 h 23.72266 z m -7.424,-21.1626666 h -19.2 l 7.76534,-22.101334 c 0.59733,-1.706667 1.45066,-4.522667 1.87733,-6.058667 0.34133,1.536 1.28,4.352 1.87733,6.058667 z"
         id="path5068-7"
         inkscape:connector-curvature="0" /><path
         style="font-style:normal;font-variant:normal;font-weight:normal;font-stretch:normal;font-size:85.33333588px;line-height:24.98267746px;font-family:overpass;-inkscape-font-specification:'overpass, Normal';font-variant-ligatures:normal;font-variant-caps:normal;font-variant-numeric:normal;font-feature-settings:normal;text-align:start;letter-spacing:0px;word-spacing:0px;writing-mode:lr-tb;text-anchor:start;display:inline;fill:#4a4a55;fill-opacity:1;stroke:#4a4a55;stroke-opacity:1"
         d="m -189.92027,-57.676592 h 16.64 v -7.082667 h -40.704 v 7.082667 h 16.64 v 52.6506676 h 7.424 z"
         id="path5070-7"
         inkscape:connector-curvature="0" /><path
         style="font-style:normal;font-variant:normal;font-weight:normal;font-stretch:normal;font-size:85.33333588px;line-height:24.98267746px;font-family:overpass;-inkscape-font-specification:'overpass, Normal';font-variant-ligatures:normal;font-variant-caps:normal;font-variant-numeric:normal;font-feature-settings:normal;text-align:start;letter-spacing:0px;word-spacing:0px;writing-mode:lr-tb;text-anchor:start;display:inline;fill:#4a4a55;fill-opacity:1;stroke:#4a4a55;stroke-opacity:1"
         d="m -160.14028,-5.0259244 h 7.424 V -64.759259 h -7.424 z"
         id="path5072-2"
         inkscape:connector-curvature="0" /><path
         style="font-style:normal;font-variant:normal;font-weight:normal;font-stretch:normal;font-size:85.33333588px;line-height:24.98267746px;font-family:overpass;-inkscape-font-specification:'overpass, Normal';font-variant-ligatures:normal;font-variant-caps:normal;font-variant-numeric:normal;font-feature-settings:normal;text-align:start;letter-spacing:0px;word-spacing:0px;writing-mode:lr-tb;text-anchor:start;display:inline;fill:#4a4a55;fill-opacity:1;stroke:#4a4a55;stroke-opacity:1"
         d="m -121.09761,-5.0259244 h 6.57067 l 20.394665,-59.7333346 h -7.936005 l -13.824,43.178668 c -0.512,1.706667 -1.19466,3.84 -1.70666,6.058667 -0.59734,-2.218667 -1.28,-4.352 -1.792,-6.058667 l -14.25067,-43.178668 h -7.936 z"
         id="path5074-7"
         inkscape:connector-curvature="0" /><path
         style="font-style:normal;font-variant:normal;font-weight:normal;font-stretch:normal;font-size:85.33333588px;line-height:24.98267746px;font-family:overpass;-inkscape-font-specification:'overpass, Normal';font-variant-ligatures:normal;font-variant-caps:normal;font-variant-numeric:normal;font-feature-settings:normal;text-align:start;letter-spacing:0px;word-spacing:0px;writing-mode:lr-tb;text-anchor:start;display:inline;fill:#4a4a55;fill-opacity:1;stroke:#4a4a55;stroke-opacity:1"
         d="m -83.144275,-5.0259244 h 37.376 v -7.0826666 h -29.952 v -20.309334 h 18.51733 v -6.997333 h -18.51733 v -18.346667 h 28.07467 v -6.997334 h -35.49867 z"
         id="path5076-2"
         inkscape:connector-curvature="0" /></g><g
       transform="matrix(1.4435402,0,0,1.4435402,-297.73281,0.654919)"
       id="text5083-2"
       style="font-style:normal;font-variant:normal;font-weight:100;font-stretch:normal;font-size:24px;line-height:24.98267746px;font-family:overpass;-inkscape-font-specification:'overpass, Thin';font-variant-ligatures:normal;font-variant-caps:normal;font-variant-numeric:normal;font-feature-settings:normal;text-align:start;letter-spacing:0px;word-spacing:0px;writing-mode:lr-tb;text-anchor:start;display:inline;fill:#4a4a55;fill-opacity:1;stroke:#4a4a55;stroke-opacity:1"
       aria-label="SVELTE"><path
         inkscape:connector-curvature="0"
         id="path5087-50"
         d="m 15.965614,-4.1680618 c 2.856,0 4.896,-1.608 4.896,-4.44 0,-3.0720002 -2.472,-4.4400002 -4.584,-5.3040002 -2.064,-0.84 -4.128,-1.752 -4.128,-3.912 0,-1.776 1.32,-2.88 3.552,-2.88 1.8,0 3,0.792 3.576,2.184 l 0.864,-0.264 c -0.552,-1.68 -2.28,-2.76 -4.368,-2.76 -2.928,0 -4.536,1.584 -4.536,3.672 0,2.784 2.424,3.912 4.656,4.8 2.112,0.816 4.056,2.16 4.056,4.4400002 0,2.376 -1.584,3.624 -3.96,3.624 -1.992,0 -3.6,-1.2 -4.392,-2.976 l -0.912,0.288 c 0.792,1.896 2.712,3.528 5.28,3.528 z" /><path
         inkscape:connector-curvature="0"
         id="path5089-3"
         d="m 30.502268,-4.7440618 h 0.672 l 5.736,-16.8000002 h -0.936 l -4.8,14.0160002 c -0.12,0.336 -0.216,0.648 -0.336,1.008 -0.12,-0.36 -0.216,-0.672 -0.336,-1.008 l -4.8,-14.0160002 h -0.936 z" /><path
         inkscape:connector-curvature="0"
         id="path5091-4"
         d="m 41.75019,-4.7440618 h 9.288 v -0.792 h -8.424 v -7.5120002 h 5.328 v -0.792 h -5.328 v -6.912 h 7.896 v -0.792 h -8.76 z" /><path
         inkscape:connector-curvature="0"
         id="path5093-2"
         d="m 56.138643,-4.7440618 h 9.192 v -0.792 h -8.328 V -21.544062 h -0.864 z" /><path
         inkscape:connector-curvature="0"
         id="path5095-92"
         d="m 73.469317,-20.752062 h 4.632 v -0.792 h -10.104 v 0.792 h 4.608 v 16.0080002 h 0.864 z" /><path
         inkscape:connector-curvature="0"
         id="path5097-4"
         d="m 82.745769,-4.7440619 h 9.288 v -0.792 h -8.424 v -7.5120001 h 5.328 v -0.792 h -5.328 v -6.912 h 7.896 v -0.792 h -8.76 z" /></g></g></svg>