<?xml version="1.0" encoding="UTF-8" standalone="no"?>
<!-- Generator: Adobe Illustrator 23.0.2, SVG Export Plug-In . SVG Version: 6.00 Build 0)  -->

<svg
   xmlns:dc="http://purl.org/dc/elements/1.1/"
   xmlns:cc="http://creativecommons.org/ns#"
   xmlns:rdf="http://www.w3.org/1999/02/22-rdf-syntax-ns#"
   xmlns:svg="http://www.w3.org/2000/svg"
   xmlns="http://www.w3.org/2000/svg"
   xmlns:sodipodi="http://sodipodi.sourceforge.net/DTD/sodipodi-0.dtd"
   xmlns:inkscape="http://www.inkscape.org/namespaces/inkscape"
   version="1.1"
   id="svelte"
   x="0px"
   y="0px"
   viewBox="0 0 256 300"
   style="enable-background:new 0 0 256 300;"
   xml:space="preserve"
   sodipodi:docname="svelte-native-logo-vertical-full.svg"
   inkscape:version="0.92.0 r15299"><metadata
     id="metadata5660"><rdf:RDF><cc:Work
         rdf:about=""><dc:format>image/svg+xml</dc:format><dc:type
           rdf:resource="http://purl.org/dc/dcmitype/StillImage" /><dc:title></dc:title></cc:Work></rdf:RDF></metadata><defs
     id="defs5658" /><sodipodi:namedview
     pagecolor="#ffffff"
     bordercolor="#666666"
     borderopacity="1"
     objecttolerance="10"
     gridtolerance="10"
     guidetolerance="10"
     inkscape:pageopacity="0"
     inkscape:pageshadow="2"
     inkscape:window-width="1680"
     inkscape:window-height="987"
     id="namedview5656"
     showgrid="false"
     inkscape:snap-nodes="false"
     inkscape:zoom="1.1125147"
     inkscape:cx="-100.01719"
     inkscape:cy="-6.3330283"
     inkscape:window-x="1912"
     inkscape:window-y="-8"
     inkscape:window-maximized="1"
     inkscape:current-layer="g5779" /><style
     type="text/css"
     id="style5637">
	.st0{fill:#159497;}
	.st1{fill:#FFFFFF;}
	.st2{fill:#4A4A55;}
</style><path
     id="front"
     class="st1"
     d="M115.9,183.7c-13.2,3.4-27.2-1.7-34.9-12.9c-4.7-6.6-6.6-14.8-5.2-22.8c0.2-1.3,0.6-2.6,1-3.8  l0.8-2.4l2.1,1.5c4.8,3.6,10.3,6.3,16,8l1.5,0.5l-0.1,1.5c-0.2,2.2,0.4,4.3,1.7,6.1c2.3,3.4,6.5,4.9,10.5,3.9  c0.9-0.2,1.7-0.6,2.5-1.1l41-26.1c2-1.3,3.4-3.4,3.9-5.7c0.4-2.4-0.1-4.9-1.6-6.9c-2.3-3.4-6.5-4.9-10.5-3.9  c-0.9,0.2-1.7,0.6-2.5,1.1l-15.6,10c-2.6,1.6-5.4,2.9-8.3,3.7c-13.2,3.4-27.2-1.8-34.9-13c-4.7-6.6-6.6-14.8-5.2-22.8  c1.4-7.8,6-14.7,12.8-18.9l41-26.1c2.6-1.6,5.4-2.9,8.3-3.7c13.2-3.4,27.2,1.8,34.9,13c4.7,6.6,6.6,14.8,5.1,22.8  c-0.2,1.3-0.6,2.6-1,3.8l-0.8,2.3l-2.1-1.5c-4.8-3.6-10.2-6.3-16-8l-1.5-0.5l0.1-1.5c0.2-2.2-0.4-4.3-1.6-6.1  c-2.3-3.4-6.5-4.9-10.5-3.9c-0.9,0.2-1.7,0.6-2.5,1.1l-41,26.1c-2,1.3-3.4,3.3-3.8,5.7c-0.4,2.4,0.1,4.9,1.6,6.9  c2.4,3.4,6.5,4.9,10.5,3.9c0.9-0.2,1.7-0.6,2.5-1.1l15.6-10c2.6-1.6,5.4-2.9,8.3-3.7c13.2-3.4,27.2,1.7,34.9,12.9  c4.7,6.6,6.6,14.8,5.2,22.8c-1.4,7.8-6,14.7-12.8,18.9l-41,26.1C121.7,181.7,118.8,182.9,115.9,183.7" /><g
     inkscape:groupmode="layer"
     id="layer1"
     inkscape:label="Layer 1"
     style="display:inline"><g
       transform="matrix(1.5466916,0,0,1.5466916,24.001976,8.9958327)"
       style="display:inline"
       id="g5649"><path
         sodipodi:nodetypes="sccccccccsccscc"
         id="path2"
         d="m 114.61649,22.502 c 5.03073,5.076842 7.64236,11.436382 7.8331,19.078628 v 53.972444 c -0.19074,7.640448 -2.80237,14.001788 -7.8331,19.078618 -5.03072,5.07685 -11.33427,7.71241 -18.907102,7.90671 H 42.228976 C 34.656154,122.3441 28.35438,119.70854 23.323655,114.63169 18.29293,109.55486 15.681301,103.19352 15.488781,95.553072 V 41.580628 C 15.681301,33.938382 18.29293,27.578842 23.323655,22.502 28.35438,17.425162 34.656154,14.789595 42.228976,14.595302 h 53.480412 c 7.572832,0.194293 13.876382,2.82986 18.907102,7.906698 z M 24.395046,68.565957 c 110.657044,25.394223 55.328525,12.697103 0,0 z"
         style="fill:#3c5afd;stroke-width:0.41973335"
         inkscape:connector-curvature="0" /><path
         sodipodi:nodetypes="cccccccccccccccccccccczscszccccccccccccccccccccccczscsscc"
         inkscape:connector-curvature="0"
         style="fill:#ffffff;stroke-width:0.9831605"
         d="m 61.015436,112.67252 c -8.70235,2.26237 -17.89196,-1.14495 -23.01581,-8.53383 -3.112139,-4.34458 -4.341981,-9.760072 -3.411545,-15.022683 0.153916,-0.856106 0.367466,-1.70041 0.639034,-2.526732 l 0.511261,-1.553407 1.386255,0.983169 c 3.195577,2.350629 6.770278,4.136343 10.568979,5.279567 l 0.98313,0.304782 -0.09832,0.983169 c -0.117639,1.423651 0.268755,2.843358 1.091305,4.011279 1.537161,2.281396 4.350603,3.338926 7.009944,2.634866 0.584631,-0.15633 1.141712,-0.40173 1.651712,-0.72752 L 85.299466,81.290032 c 1.337412,-0.844474 2.260711,-2.209792 2.546395,-3.765486 0.291718,-1.578368 -0.06257,-3.207764 -0.983169,-4.522555 -1.545114,-2.228575 -4.316205,-3.256938 -6.94111,-2.575878 -0.586983,0.15843 -1.147009,0.403649 -1.661543,0.727538 L 67.917193,77.72118 C 66.223184,78.801273 64.372762,79.613728 62.43116,80.129905 53.722804,82.398319 44.524295,78.990612 39.395713,71.596074 36.300741,67.244233 35.088761,61.82935 36.0333,56.573381 c 0.929293,-5.158432 3.983045,-9.689123 8.415838,-12.486139 0,0 5.685952,-3.286547 7.334128,-4.724938 1.648175,-1.438392 1.973357,-2.822288 2.374603,-4.425004 0.443544,-1.771683 -0.505767,-6.056984 -0.505767,-6.056984 0,0 3.333943,2.784012 5.067016,3.177602 2.005284,0.455412 3.486203,0.853708 5.458088,-0.334531 1.971899,-1.188238 7.249875,-4.851285 7.249875,-4.851285 1.694009,-1.080097 3.544431,-1.892556 5.486032,-2.408744 8.705439,-2.26691 17.900337,1.140938 23.025618,8.533834 3.112149,4.344572 4.341979,9.760078 3.411569,15.022694 -0.15393,0.856091 -0.36747,1.700384 -0.63905,2.526722 L 102.2,52.1 100.81375,51.116841 C 97.618185,48.766204 94.043472,46.980507 90.244771,45.837266 l -0.983156,-0.304778 0.09832,-0.98316 c 0.117507,-1.423665 -0.268755,-2.843379 -1.091305,-4.011294 -1.543273,-2.230967 -4.316061,-3.259961 -6.941123,-2.575882 -0.584631,0.156353 -1.141712,0.401739 -1.651711,0.727542 l -27.03692,17.156148 c -1.337991,0.842023 -2.258937,2.209174 -2.536564,3.765506 -0.301996,1.578499 0.05297,3.211896 0.983169,4.522537 1.545114,2.22858 4.316219,3.256945 6.941123,2.575881 0.586984,-0.158431 1.147009,-0.403652 1.66153,-0.727537 L 69.99167,59.414715 c 1.694009,-1.080098 3.54443,-1.892555 5.486032,-2.408745 8.708357,-2.268423 17.906879,1.139309 23.035454,8.533834 3.105274,4.347484 4.327954,9.762758 3.391904,15.022709 -0.92929,5.158418 -3.98305,9.68912 -8.415853,12.486132 0,0 -4.787654,3.275755 -6.506242,4.542019 -1.718588,1.266266 -2.349143,2.568886 -2.539915,4.343016 -0.190772,1.77412 0.820144,5.64239 0.820144,5.64239 0,0 -3.24413,-1.89143 -5.415988,-2.66373 -1.748819,-0.62187 -3.898227,-0.58952 -6.59144,1.04766 -2.144939,1.30388 -6.744489,4.30377 -6.744489,4.30377 -1.694009,1.08012 -3.544431,1.89256 -5.486046,2.40875"
         id="path3711" /></g><g
       transform="matrix(0.59327793,0,0,0.59327793,238.48376,275.13796)"
       style="font-style:normal;font-variant:normal;font-weight:normal;font-stretch:normal;font-size:85.33333588px;line-height:24.98267746px;font-family:overpass;-inkscape-font-specification:'overpass, Normal';font-variant-ligatures:normal;font-variant-caps:normal;font-variant-numeric:normal;font-feature-settings:normal;text-align:start;letter-spacing:0px;word-spacing:0px;writing-mode:lr-tb;text-anchor:start;display:inline;fill:#4a4a55;fill-opacity:1;stroke:#4a4a55;stroke-opacity:1"
       id="g5779"><g
         transform="translate(0.5742279,2.1398478)"
         id="g5733"><path
           inkscape:connector-curvature="0"
           id="path5066-8"
           d="M -275.12028,-5.0259244 V -64.759259 h -7.424 v 42.581335 c 0,1.365333 0.0853,2.816 0.17067,4.352 -0.85333,-1.621334 -1.62133,-2.986667 -2.47467,-4.437334 l -26.45333,-42.496001 h -7.50933 v 59.7333346 h 7.424 V -47.692592 c 0,-1.365333 -0.0853,-2.901333 -0.17067,-4.181333 0.768,1.450667 1.62133,2.901333 2.38933,4.181333 l 26.88,42.6666676 z"
           style="font-style:normal;font-variant:normal;font-weight:normal;font-stretch:normal;font-size:85.33333588px;line-height:24.98267746px;font-family:overpass;-inkscape-font-specification:'overpass, Normal';font-variant-ligatures:normal;font-variant-caps:normal;font-variant-numeric:normal;font-feature-settings:normal;text-align:start;letter-spacing:0px;word-spacing:0px;writing-mode:lr-tb;text-anchor:start;display:inline;fill:#4a4a55;fill-opacity:1;stroke:#4a4a55;stroke-opacity:1" /><path
           inkscape:connector-curvature="0"
           id="path5068-7"
           d="m -222.34561,-5.0259244 h 7.59467 l -21.16267,-59.7333346 h -6.912 l -21.16267,59.7333346 h 7.76534 l 5.03467,-14.5919996 h 23.72266 z m -7.424,-21.1626666 h -19.2 l 7.76534,-22.101334 c 0.59733,-1.706667 1.45066,-4.522667 1.87733,-6.058667 0.34133,1.536 1.28,4.352 1.87733,6.058667 z"
           style="font-style:normal;font-variant:normal;font-weight:normal;font-stretch:normal;font-size:85.33333588px;line-height:24.98267746px;font-family:overpass;-inkscape-font-specification:'overpass, Normal';font-variant-ligatures:normal;font-variant-caps:normal;font-variant-numeric:normal;font-feature-settings:normal;text-align:start;letter-spacing:0px;word-spacing:0px;writing-mode:lr-tb;text-anchor:start;display:inline;fill:#4a4a55;fill-opacity:1;stroke:#4a4a55;stroke-opacity:1" /><path
           inkscape:connector-curvature="0"
           id="path5070-7"
           d="m -189.92027,-57.676592 h 16.64 v -7.082667 h -40.704 v 7.082667 h 16.64 v 52.6506676 h 7.424 z"
           style="font-style:normal;font-variant:normal;font-weight:normal;font-stretch:normal;font-size:85.33333588px;line-height:24.98267746px;font-family:overpass;-inkscape-font-specification:'overpass, Normal';font-variant-ligatures:normal;font-variant-caps:normal;font-variant-numeric:normal;font-feature-settings:normal;text-align:start;letter-spacing:0px;word-spacing:0px;writing-mode:lr-tb;text-anchor:start;display:inline;fill:#4a4a55;fill-opacity:1;stroke:#4a4a55;stroke-opacity:1" /><path
           inkscape:connector-curvature="0"
           id="path5072-2"
           d="m -160.14028,-5.0259244 h 7.424 V -64.759259 h -7.424 z"
           style="font-style:normal;font-variant:normal;font-weight:normal;font-stretch:normal;font-size:85.33333588px;line-height:24.98267746px;font-family:overpass;-inkscape-font-specification:'overpass, Normal';font-variant-ligatures:normal;font-variant-caps:normal;font-variant-numeric:normal;font-feature-settings:normal;text-align:start;letter-spacing:0px;word-spacing:0px;writing-mode:lr-tb;text-anchor:start;display:inline;fill:#4a4a55;fill-opacity:1;stroke:#4a4a55;stroke-opacity:1" /><path
           inkscape:connector-curvature="0"
           id="path5074-7"
           d="m -121.09761,-5.0259244 h 6.57067 l 20.394665,-59.7333346 h -7.936005 l -13.824,43.178668 c -0.512,1.706667 -1.19466,3.84 -1.70666,6.058667 -0.59734,-2.218667 -1.28,-4.352 -1.792,-6.058667 l -14.25067,-43.178668 h -7.936 z"
           style="font-style:normal;font-variant:normal;font-weight:normal;font-stretch:normal;font-size:85.33333588px;line-height:24.98267746px;font-family:overpass;-inkscape-font-specification:'overpass, Normal';font-variant-ligatures:normal;font-variant-caps:normal;font-variant-numeric:normal;font-feature-settings:normal;text-align:start;letter-spacing:0px;word-spacing:0px;writing-mode:lr-tb;text-anchor:start;display:inline;fill:#4a4a55;fill-opacity:1;stroke:#4a4a55;stroke-opacity:1" /><path
           inkscape:connector-curvature="0"
           id="path5076-2"
           d="m -83.144275,-5.0259244 h 37.376 v -7.0826666 h -29.952 v -20.309334 h 18.51733 v -6.997333 h -18.51733 v -18.346667 h 28.07467 v -6.997334 h -35.49867 z"
           style="font-style:normal;font-variant:normal;font-weight:normal;font-stretch:normal;font-size:85.33333588px;line-height:24.98267746px;font-family:overpass;-inkscape-font-specification:'overpass, Normal';font-variant-ligatures:normal;font-variant-caps:normal;font-variant-numeric:normal;font-feature-settings:normal;text-align:start;letter-spacing:0px;word-spacing:0px;writing-mode:lr-tb;text-anchor:start;display:inline;fill:#4a4a55;fill-opacity:1;stroke:#4a4a55;stroke-opacity:1" /></g><g
         aria-label="SVELTE"
         style="font-style:normal;font-variant:normal;font-weight:100;font-stretch:normal;font-size:24px;line-height:24.98267746px;font-family:overpass;-inkscape-font-specification:'overpass, Thin';font-variant-ligatures:normal;font-variant-caps:normal;font-variant-numeric:normal;font-feature-settings:normal;text-align:start;letter-spacing:0px;word-spacing:0px;writing-mode:lr-tb;text-anchor:start;display:inline;fill:#4a4a55;fill-opacity:1;stroke:#4a4a55;stroke-opacity:1"
         id="text5083-2"
         transform="matrix(1.4435402,0,0,1.4435402,-251.34441,-69.646536)"><path
           d="m 15.560458,-4.9783741 c 2.856,0 4.896,-1.608 4.896,-4.44 0,-3.0719999 -2.472,-4.4399999 -4.584,-5.3039999 -2.064,-0.84 -4.128,-1.752 -4.128,-3.912 0,-1.776 1.32,-2.88 3.552,-2.88 1.8,0 3,0.792 3.576,2.184 l 0.864,-0.264 c -0.552,-1.68 -2.28,-2.76 -4.368,-2.76 -2.928,0 -4.536,1.584 -4.536,3.672 0,2.784 2.424,3.912 4.656,4.8 2.112,0.816 4.056,2.16 4.056,4.4399999 0,2.376 -1.584,3.624 -3.96,3.624 -1.992,0 -3.6,-1.2 -4.392,-2.976 l -0.912,0.288 c 0.792,1.896 2.712,3.528 5.28,3.528 z"
           id="path5087-50"
           inkscape:connector-curvature="0" /><path
           d="m 28.525333,-5.2663741 h 0.672 l 5.736,-16.7999999 h -0.936 l -4.8,14.0159999 c -0.12,0.336 -0.216,0.648 -0.336,1.008 -0.12,-0.36 -0.216,-0.672 -0.336,-1.008 l -4.8,-14.0159999 h -0.936 z"
           id="path5089-3"
           inkscape:connector-curvature="0" /><path
           d="m 38.870458,-5.2663741 h 9.288 v -0.792 h -8.424 v -7.5119999 h 5.328 v -0.792 h -5.328 v -6.912 h 7.896 v -0.792 h -8.76 z"
           id="path5091-4"
           inkscape:connector-curvature="0" /><path
           d="m 52.839208,-5.2663741 h 9.192 v -0.792 h -8.328 V -22.066374 h -0.864 z"
           id="path5093-2"
           inkscape:connector-curvature="0" /><path
           d="m 68.178208,-21.274374 h 4.632 v -0.792 h -10.104 v 0.792 h 4.608 v 16.0079999 h 0.864 z"
           id="path5095-92"
           inkscape:connector-curvature="0" /><path
           d="m 77.073583,-5.2663741 h 9.288 v -0.792 h -8.424 v -7.5119999 h 5.328 v -0.792 h -5.328 v -6.912 h 7.896 v -0.792 h -8.76 z"
           id="path5097-4"
           inkscape:connector-curvature="0" /></g></g></g></svg>