<?xml version="1.0" encoding="UTF-8" standalone="no"?>
<!-- Generator: Adobe Illustrator 23.0.2, SVG Export Plug-In . SVG Version: 6.00 Build 0)  -->

<svg
   xmlns:dc="http://purl.org/dc/elements/1.1/"
   xmlns:cc="http://creativecommons.org/ns#"
   xmlns:rdf="http://www.w3.org/1999/02/22-rdf-syntax-ns#"
   xmlns:svg="http://www.w3.org/2000/svg"
   xmlns="http://www.w3.org/2000/svg"
   xmlns:sodipodi="http://sodipodi.sourceforge.net/DTD/sodipodi-0.dtd"
   xmlns:inkscape="http://www.inkscape.org/namespaces/inkscape"
   version="1.1"
   id="svelte"
   x="0px"
   y="0px"
   viewBox="0 0 464 139"
   xml:space="preserve"
   sodipodi:docname="svelte-native-logo-horizontal.svg"
   inkscape:version="0.92.0 r15299"
   width="464"
   height="139"><metadata
     id="metadata25"><rdf:RDF><cc:Work
         rdf:about=""><dc:format>image/svg+xml</dc:format><dc:type
           rdf:resource="http://purl.org/dc/dcmitype/StillImage" /><dc:title /></cc:Work></rdf:RDF></metadata><defs
     id="defs23" /><sodipodi:namedview
     pagecolor="#ffffff"
     bordercolor="#666666"
     borderopacity="1"
     objecttolerance="10"
     gridtolerance="10"
     guidetolerance="10"
     inkscape:pageopacity="0"
     inkscape:pageshadow="2"
     inkscape:window-width="1680"
     inkscape:window-height="987"
     id="namedview21"
     showgrid="false"
     inkscape:zoom="2.1888247"
     inkscape:cx="201.19609"
     inkscape:cy="24.31554"
     inkscape:window-x="1912"
     inkscape:window-y="-8"
     inkscape:window-maximized="1"
     inkscape:current-layer="text4505" /><style
     type="text/css"
     id="style2">
	.st0{fill:#159497;}
	.st1{fill:#FFFFFF;}
	.st2{fill:#4A4A55;}
</style><path
     id="front"
     class="st1"
     d="m 61.9,112.2 c -8.4,2.2 -17.3,-1.1 -22.2,-8.2 -3,-4.2 -4.2,-9.4 -3.3,-14.5 0.1,-0.8 0.4,-1.6 0.6,-2.4 l 0.5,-1.5 1.3,1 c 3.1,2.2 6.5,4 10.2,5.1 l 1,0.3 -0.1,1 c -0.1,1.4 0.3,2.7 1.1,3.8 1.5,2.1 4.2,3.1 6.7,2.5 0.6,-0.2 1.1,-0.4 1.6,-0.7 L 85.3,82 c 1.3,-0.8 2.2,-2.1 2.4,-3.6 0.3,-1.5 -0.1,-3.1 -1,-4.4 -1.5,-2.1 -4.2,-3.1 -6.7,-2.5 -0.6,0.2 -1.1,0.4 -1.6,0.7 l -10,6.3 c -1.6,1 -3.4,1.8 -5.3,2.3 -8.4,2.2 -17.3,-1.1 -22.2,-8.2 -3,-4.2 -4.2,-9.4 -3.2,-14.5 0.9,-5 3.8,-9.4 8.1,-12.1 L 72,29.3 c 1.6,-1 3.4,-1.8 5.3,-2.3 8.4,-2.2 17.3,1.1 22.2,8.2 3,4.2 4.2,9.4 3.3,14.5 -0.2,0.8 -0.4,1.6 -0.6,2.4 l -0.5,1.5 -1.3,-1 c -3.1,-2.3 -6.5,-4 -10.2,-5.1 l -1,-0.3 0.1,-1 C 89.4,44.8 89,43.4 88.2,42.3 86.7,40.2 84,39.2 81.5,39.9 c -0.6,0.2 -1.1,0.4 -1.6,0.7 L 53.8,57.3 c -1.3,0.8 -2.2,2.1 -2.5,3.6 -0.3,1.5 0.1,3.1 1,4.4 1.5,2.1 4.1,3.1 6.7,2.5 0.6,-0.2 1.1,-0.4 1.6,-0.7 l 10,-6.3 c 1.6,-1 3.4,-1.8 5.3,-2.3 8.4,-2.2 17.3,1.1 22.2,8.2 3,4.2 4.2,9.4 3.3,14.5 -0.9,5 -3.8,9.4 -8.1,12.1 l -26.1,16.6 c -1.6,1 -3.4,1.8 -5.3,2.3"
     inkscape:connector-curvature="0"
     style="fill:#ffffff" /><g
     inkscape:groupmode="layer"
     id="layer1"
     inkscape:label="logo_icon"
     style="display:inline"><g
       id="g5649"><path
         sodipodi:nodetypes="sccccccccsccscc"
         id="path2"
         d="m 114.61649,22.502 c 5.03073,5.076842 7.64236,11.436382 7.8331,19.078628 v 53.972444 c -0.19074,7.640448 -2.80237,14.001788 -7.8331,19.078618 -5.03072,5.07685 -11.33427,7.71241 -18.907102,7.90671 H 42.228976 C 34.656154,122.3441 28.35438,119.70854 23.323655,114.63169 18.29293,109.55486 15.681301,103.19352 15.488781,95.553072 V 41.580628 C 15.681301,33.938382 18.29293,27.578842 23.323655,22.502 28.35438,17.425162 34.656154,14.789595 42.228976,14.595302 h 53.480412 c 7.572832,0.194293 13.876382,2.82986 18.907102,7.906698 z M 24.395046,68.565957 c 110.657044,25.394223 55.328525,12.697103 0,0 z"
         style="fill:#3c5afd;stroke-width:0.41973335"
         inkscape:connector-curvature="0" /><path
         sodipodi:nodetypes="cccccccccccccccccccccczscszccccccccccccccccccccccczscsscc"
         inkscape:connector-curvature="0"
         style="fill:#ffffff;stroke-width:0.9831605"
         d="m 61.015436,112.67252 c -8.70235,2.26237 -17.89196,-1.14495 -23.01581,-8.53383 -3.112139,-4.34458 -4.341981,-9.760072 -3.411545,-15.022683 0.153916,-0.856106 0.367466,-1.70041 0.639034,-2.526732 l 0.511261,-1.553407 1.386255,0.983169 c 3.195577,2.350629 6.770278,4.136343 10.568979,5.279567 l 0.98313,0.304782 -0.09832,0.983169 c -0.117639,1.423651 0.268755,2.843358 1.091305,4.011279 1.537161,2.281396 4.350603,3.338926 7.009944,2.634866 0.584631,-0.15633 1.141712,-0.40173 1.651712,-0.72752 L 85.299466,81.290032 c 1.337412,-0.844474 2.260711,-2.209792 2.546395,-3.765486 0.291718,-1.578368 -0.06257,-3.207764 -0.983169,-4.522555 -1.545114,-2.228575 -4.316205,-3.256938 -6.94111,-2.575878 -0.586983,0.15843 -1.147009,0.403649 -1.661543,0.727538 L 67.917193,77.72118 C 66.223184,78.801273 64.372762,79.613728 62.43116,80.129905 53.722804,82.398319 44.524295,78.990612 39.395713,71.596074 36.300741,67.244233 35.088761,61.82935 36.0333,56.573381 c 0.929293,-5.158432 3.983045,-9.689123 8.415838,-12.486139 0,0 5.685952,-3.286547 7.334128,-4.724938 1.648175,-1.438392 1.973357,-2.822288 2.374603,-4.425004 0.443544,-1.771683 -0.505767,-6.056984 -0.505767,-6.056984 0,0 3.333943,2.784012 5.067016,3.177602 2.005284,0.455412 3.486203,0.853708 5.458088,-0.334531 1.971899,-1.188238 7.249875,-4.851285 7.249875,-4.851285 1.694009,-1.080097 3.544431,-1.892556 5.486032,-2.408744 8.705439,-2.26691 17.900337,1.140938 23.025618,8.533834 3.112149,4.344572 4.341979,9.760078 3.411569,15.022694 -0.15393,0.856091 -0.36747,1.700384 -0.63905,2.526722 L 102.2,52.1 100.81375,51.116841 C 97.618185,48.766204 94.043472,46.980507 90.244771,45.837266 l -0.983156,-0.304778 0.09832,-0.98316 c 0.117507,-1.423665 -0.268755,-2.843379 -1.091305,-4.011294 -1.543273,-2.230967 -4.316061,-3.259961 -6.941123,-2.575882 -0.584631,0.156353 -1.141712,0.401739 -1.651711,0.727542 l -27.03692,17.156148 c -1.337991,0.842023 -2.258937,2.209174 -2.536564,3.765506 -0.301996,1.578499 0.05297,3.211896 0.983169,4.522537 1.545114,2.22858 4.316219,3.256945 6.941123,2.575881 0.586984,-0.158431 1.147009,-0.403652 1.66153,-0.727537 L 69.99167,59.414715 c 1.694009,-1.080098 3.54443,-1.892555 5.486032,-2.408745 8.708357,-2.268423 17.906879,1.139309 23.035454,8.533834 3.105274,4.347484 4.327954,9.762758 3.391904,15.022709 -0.92929,5.158418 -3.98305,9.68912 -8.415853,12.486132 0,0 -4.787654,3.275755 -6.506242,4.542019 -1.718588,1.266266 -2.349143,2.568886 -2.539915,4.343016 -0.190772,1.77412 0.820144,5.64239 0.820144,5.64239 0,0 -3.24413,-1.89143 -5.415988,-2.66373 -1.748819,-0.62187 -3.898227,-0.58952 -6.59144,1.04766 -2.144939,1.30388 -6.744489,4.30377 -6.744489,4.30377 -1.694009,1.08012 -3.544431,1.89256 -5.486046,2.40875"
         id="path3711" /></g><g
       aria-label="NATIVE"
       style="font-style:normal;font-variant:normal;font-weight:normal;font-stretch:normal;font-size:85.33333588px;line-height:24.98267746px;font-family:overpass;-inkscape-font-specification:'overpass, Normal';font-variant-ligatures:normal;font-variant-caps:normal;font-variant-numeric:normal;font-feature-settings:normal;text-align:start;letter-spacing:0px;word-spacing:0px;writing-mode:lr-tb;text-anchor:start;fill:#4a4a55;fill-opacity:1;stroke:#4a4a55;stroke-opacity:1"
       id="text4505"><path
         d="M 193.22498,99.709503 V 39.976168 h -7.424 v 42.581335 c 0,1.365333 0.0853,2.816 0.17067,4.352 -0.85334,-1.621334 -1.62134,-2.986667 -2.47467,-4.437334 L 157.04365,39.976168 h -7.50934 v 59.733335 h 7.424 V 57.042835 c 0,-1.365333 -0.0853,-2.901333 -0.17066,-4.181333 0.768,1.450666 1.62133,2.901333 2.38933,4.181333 l 26.88,42.666668 z"
         style=""
         id="path4503" /><path
         d="m 245.99965,99.709503 h 7.59467 L 232.43165,39.976168 h -6.912 l -21.16267,59.733335 h 7.76534 l 5.03466,-14.592 h 23.72267 z m -7.424,-21.162667 h -19.2 l 7.76533,-22.101334 c 0.59734,-1.706667 1.45067,-4.522667 1.87734,-6.058667 0.34133,1.536 1.28,4.352 1.87733,6.058667 z"
         style=""
         id="path4505" /><path
         d="m 278.42499,47.058835 h 16.64 v -7.082667 h -40.70401 v 7.082667 h 16.64001 v 52.650668 h 7.424 z"
         style=""
         id="path4507" /><path
         d="m 308.20498,99.709503 h 7.424 V 39.976168 h -7.424 z"
         style=""
         id="path4509" /><path
         d="m 347.24765,99.709503 h 6.57066 l 20.39467,-59.733335 h -7.936 l -13.824,43.178668 c -0.512,1.706667 -1.19467,3.84 -1.70667,6.058667 -0.59733,-2.218667 -1.28,-4.352 -1.792,-6.058667 L 334.70365,39.976168 h -7.936 z"
         style=""
         id="path4511" /><path
         d="m 385.20098,99.709503 h 37.37601 v -7.082667 h -29.952 V 72.317502 h 18.51733 V 65.320169 H 392.62499 V 46.973502 h 28.07466 v -6.997334 h -35.49867 z"
         style=""
         id="path4513" /></g></g><g
     inkscape:groupmode="layer"
     id="layer2"
     inkscape:label="logo_text" /></svg>