<?xml version="1.0" encoding="UTF-8" standalone="no"?>
<!-- Created with Inkscape (http://www.inkscape.org/) -->

<svg
   xmlns:dc="http://purl.org/dc/elements/1.1/"
   xmlns:cc="http://creativecommons.org/ns#"
   xmlns:rdf="http://www.w3.org/1999/02/22-rdf-syntax-ns#"
   xmlns:svg="http://www.w3.org/2000/svg"
   xmlns="http://www.w3.org/2000/svg"
   xmlns:sodipodi="http://sodipodi.sourceforge.net/DTD/sodipodi-0.dtd"
   xmlns:inkscape="http://www.inkscape.org/namespaces/inkscape"
   width="118mm"
   height="118mm"
   viewBox="0 0 118 118"
   version="1.1"
   id="svg5082"
   inkscape:version="0.92.0 r15299"
   sodipodi:docname="svelte-native-logo.svg">
  <defs
     id="defs5076" />
  <sodipodi:namedview
     id="base"
     pagecolor="#ffffff"
     bordercolor="#666666"
     borderopacity="1.0"
     inkscape:pageopacity="0.0"
     inkscape:pageshadow="2"
     inkscape:zoom="0.98994949"
     inkscape:cx="218.35987"
     inkscape:cy="175.64673"
     inkscape:document-units="mm"
     inkscape:current-layer="layer1"
     showgrid="false"
     fit-margin-top="0"
     fit-margin-left="0"
     fit-margin-right="0"
     fit-margin-bottom="0"
     inkscape:window-width="1187"
     inkscape:window-height="709"
     inkscape:window-x="89"
     inkscape:window-y="258"
     inkscape:window-maximized="0"
     scale-x="1" />
  <metadata
     id="metadata5079">
    <rdf:RDF>
      <cc:Work
         rdf:about="">
        <dc:format>image/svg+xml</dc:format>
        <dc:type
           rdf:resource="http://purl.org/dc/dcmitype/StillImage" />
        <dc:title></dc:title>
      </cc:Work>
    </rdf:RDF>
  </metadata>
  <g
     inkscape:label="Layer 1"
     inkscape:groupmode="layer"
     id="layer1"
     transform="translate(-55.397591,55.428361)">
    <g
       transform="matrix(1.0749713,0,0,1.0749713,40.839897,-70.066136)"
       style="display:inline"
       id="g5649">
      <path
         sodipodi:nodetypes="sccccccccsccscc"
         id="path2"
         d="m 114.61649,22.502 c 5.03073,5.076842 7.64236,11.436382 7.8331,19.078628 v 53.972444 c -0.19074,7.640448 -2.80237,14.001788 -7.8331,19.078618 -5.03072,5.07685 -11.33427,7.71241 -18.907102,7.90671 H 42.228976 C 34.656154,122.3441 28.35438,119.70854 23.323655,114.63169 18.29293,109.55486 15.681301,103.19352 15.488781,95.553072 V 41.580628 C 15.681301,33.938382 18.29293,27.578842 23.323655,22.502 28.35438,17.425162 34.656154,14.789595 42.228976,14.595302 h 53.480412 c 7.572832,0.194293 13.876382,2.82986 18.907102,7.906698 z M 24.395046,68.565957 c 110.657044,25.394223 55.328525,12.697103 0,0 z"
         style="fill:#3c5afd;stroke-width:0.41973335"
         inkscape:connector-curvature="0" />
      <path
         sodipodi:nodetypes="cccccccccccccccccccccczscszccccccccccccccccccccccczscsscc"
         inkscape:connector-curvature="0"
         style="fill:#ffffff;stroke-width:0.9831605"
         d="m 61.015436,112.67252 c -8.70235,2.26237 -17.89196,-1.14495 -23.01581,-8.53383 -3.112139,-4.34458 -4.341981,-9.760072 -3.411545,-15.022683 0.153916,-0.856106 0.367466,-1.70041 0.639034,-2.526732 l 0.511261,-1.553407 1.386255,0.983169 c 3.195577,2.350629 6.770278,4.136343 10.568979,5.279567 l 0.98313,0.304782 -0.09832,0.983169 c -0.117639,1.423651 0.268755,2.843358 1.091305,4.011279 1.537161,2.281396 4.350603,3.338926 7.009944,2.634866 0.584631,-0.15633 1.141712,-0.40173 1.651712,-0.72752 L 85.299466,81.290032 c 1.337412,-0.844474 2.260711,-2.209792 2.546395,-3.765486 0.291718,-1.578368 -0.06257,-3.207764 -0.983169,-4.522555 -1.545114,-2.228575 -4.316205,-3.256938 -6.94111,-2.575878 -0.586983,0.15843 -1.147009,0.403649 -1.661543,0.727538 L 67.917193,77.72118 C 66.223184,78.801273 64.372762,79.613728 62.43116,80.129905 53.722804,82.398319 44.524295,78.990612 39.395713,71.596074 36.300741,67.244233 35.088761,61.82935 36.0333,56.573381 c 0.929293,-5.158432 3.983045,-9.689123 8.415838,-12.486139 0,0 5.685952,-3.286547 7.334128,-4.724938 1.648175,-1.438392 1.973357,-2.822288 2.374603,-4.425004 0.443544,-1.771683 -0.505767,-6.056984 -0.505767,-6.056984 0,0 3.333943,2.784012 5.067016,3.177602 2.005284,0.455412 3.486203,0.853708 5.458088,-0.334531 1.971899,-1.188238 7.249875,-4.851285 7.249875,-4.851285 1.694009,-1.080097 3.544431,-1.892556 5.486032,-2.408744 8.705439,-2.26691 17.900337,1.140938 23.025618,8.533834 3.112149,4.344572 4.341979,9.760078 3.411569,15.022694 -0.15393,0.856091 -0.36747,1.700384 -0.63905,2.526722 L 102.2,52.1 100.81375,51.116841 C 97.618185,48.766204 94.043472,46.980507 90.244771,45.837266 l -0.983156,-0.304778 0.09832,-0.98316 c 0.117507,-1.423665 -0.268755,-2.843379 -1.091305,-4.011294 -1.543273,-2.230967 -4.316061,-3.259961 -6.941123,-2.575882 -0.584631,0.156353 -1.141712,0.401739 -1.651711,0.727542 l -27.03692,17.156148 c -1.337991,0.842023 -2.258937,2.209174 -2.536564,3.765506 -0.301996,1.578499 0.05297,3.211896 0.983169,4.522537 1.545114,2.22858 4.316219,3.256945 6.941123,2.575881 0.586984,-0.158431 1.147009,-0.403652 1.66153,-0.727537 L 69.99167,59.414715 c 1.694009,-1.080098 3.54443,-1.892555 5.486032,-2.408745 8.708357,-2.268423 17.906879,1.139309 23.035454,8.533834 3.105274,4.347484 4.327954,9.762758 3.391904,15.022709 -0.92929,5.158418 -3.98305,9.68912 -8.415853,12.486132 0,0 -4.787654,3.275755 -6.506242,4.542019 -1.718588,1.266266 -2.349143,2.568886 -2.539915,4.343016 -0.190772,1.77412 0.820144,5.64239 0.820144,5.64239 0,0 -3.24413,-1.89143 -5.415988,-2.66373 -1.748819,-0.62187 -3.898227,-0.58952 -6.59144,1.04766 -2.144939,1.30388 -6.744489,4.30377 -6.744489,4.30377 -1.694009,1.08012 -3.544431,1.89256 -5.486046,2.40875"
         id="path3711" />
    </g>
  </g>
</svg>
