<?xml version="1.0" encoding="utf-8"?>
<svg viewBox="0 0 500 500" width="500" height="500" xmlns="http://www.w3.org/2000/svg">
  <path style="fill: rgb(40, 71, 210);" d="M 254.865 87.82 C 229.179 51.038 178.416 40.13 141.704 63.518 L 77.242 104.616 C 59.626 115.677 47.497 133.659 43.838 154.135 C 40.761 171.195 43.46 188.794 51.509 204.148 C 45.985 212.529 42.226 221.947 40.46 231.828 C 36.746 252.696 41.591 274.18 53.902 291.434 C 79.705 328.216 130.374 339.124 167.086 315.737 L 231.548 274.638 C 249.16 263.573 261.288 245.593 264.952 225.119 C 268.04 208.044 265.34 190.427 257.281 175.06 C 262.805 166.679 266.564 157.261 268.33 147.38 C 272.048 126.508 267.194 105.02 254.865 87.773"/>
  <path style="fill: rgb(40, 71, 210);" d="M 276.708 297.697 C 270.643 301.683 264.02 304.683 257.072 306.587 C 225.902 314.961 192.977 302.383 174.622 275.089 C 163.543 259.028 159.206 239.04 162.588 219.64 C 165.913 200.6 176.846 183.878 192.711 173.555 L 333.499 87.765 L 349.814 95.438 L 222.024 216.955 C 217.235 220.063 213.938 225.109 212.944 230.855 C 211.864 236.68 213.134 242.71 216.463 247.546 C 221.994 255.773 212.523 215.693 221.915 213.179 C 223.057 212.861 315.584 76.871 362.671 85.189 L 383.912 103.402 L 414.739 155.184 C 414.739 155.184 427.959 170.527 425.848 184.114 C 415.752 249.094 276.708 297.697 276.708 297.697 Z" transform="matrix(-0.526935, 0.849906, -0.849906, -0.526935, 615.988953, 51.106709)"/>
  <path style="fill: white;" d="M 135.418 295.836 C 114.654 301.234 92.728 293.104 80.503 275.474 C 73.077 265.108 70.143 252.187 72.363 239.631 C 72.73 237.588 73.24 235.574 73.888 233.602 L 75.107 229.896 L 78.415 232.241 C 86.04 237.85 94.569 242.111 103.632 244.838 L 105.978 245.566 L 105.743 247.911 C 105.463 251.308 106.385 254.695 108.347 257.482 C 112.015 262.925 118.728 265.449 125.073 263.769 C 126.468 263.396 127.797 262.81 129.014 262.033 L 193.359 220.958 C 196.55 218.943 198.752 215.686 199.434 211.974 C 200.13 208.208 199.285 204.32 197.088 201.183 C 193.402 195.866 186.79 193.412 180.527 195.037 C 179.127 195.415 177.79 196 176.563 196.773 L 151.885 212.443 C 147.843 215.02 143.428 216.959 138.796 218.19 C 118.018 223.603 96.07 215.472 83.834 197.829 C 76.449 187.445 73.558 174.526 75.811 161.985 C 78.028 149.677 85.315 138.867 95.891 132.194 L 160.259 91.119 C 164.301 88.542 168.716 86.603 173.349 85.372 C 194.12 79.963 216.059 88.094 228.287 105.733 C 235.713 116.099 238.647 129.02 236.427 141.577 C 236.06 143.619 235.55 145.634 234.902 147.606 L 233.683 151.312 L 230.375 148.966 C 222.751 143.358 214.221 139.097 205.158 136.369 L 202.812 135.642 L 203.047 133.296 C 203.327 129.899 202.405 126.512 200.443 123.725 C 196.761 118.402 190.145 115.947 183.882 117.579 C 182.487 117.953 181.157 118.538 179.941 119.315 L 115.432 160.249 C 112.239 162.258 110.042 165.52 109.379 169.234 C 108.659 173 109.506 176.897 111.725 180.024 C 115.412 185.342 122.024 187.795 128.286 186.17 C 129.687 185.792 131.023 185.207 132.251 184.434 L 156.835 168.765 C 160.876 166.187 165.292 164.249 169.924 163.017 C 190.702 157.605 212.649 165.736 224.886 183.379 C 232.295 193.752 235.212 206.672 232.979 219.222 C 230.762 231.53 223.475 242.34 212.899 249.014 L 148.531 290.089 C 144.489 292.666 140.074 294.604 135.441 295.836"/>
  <path style="fill: rgb(254, 254, 254);" d="M 271.996 279.219 C 267.954 281.796 263.539 283.735 258.907 284.966 C 238.129 290.379 216.181 282.248 203.945 264.606 C 196.56 254.222 193.669 241.303 195.922 228.762 C 198.14 216.454 205.427 205.644 216.003 198.971 L 347.817 114.138 L 365.93 143.161 L 235.544 227.026 C 232.351 229.035 230.154 232.297 229.491 236.011 C 228.771 239.777 229.618 243.674 231.836 246.801 C 235.523 252.119 242.135 254.572 248.398 252.947 C 249.799 252.569 251.135 251.984 252.363 251.211 L 381.494 168.1 L 399.601 197.114 L 271.996 279.219 Z" transform="matrix(-0.526935, 0.849906, -0.849906, -0.526935, 624.39624, 53.215572)"/>
</svg>