<?xml version="1.0" encoding="UTF-8" standalone="no"?>
<svg
   xmlns:dc="http://purl.org/dc/elements/1.1/"
   xmlns:cc="http://creativecommons.org/ns#"
   xmlns:rdf="http://www.w3.org/1999/02/22-rdf-syntax-ns#"
   xmlns:svg="http://www.w3.org/2000/svg"
   xmlns="http://www.w3.org/2000/svg"
   xmlns:sodipodi="http://sodipodi.sourceforge.net/DTD/sodipodi-0.dtd"
   xmlns:inkscape="http://www.inkscape.org/namespaces/inkscape"
   viewBox="0 0 81.376305 82.123635"
   version="1.1"
   id="svg3688"
   sodipodi:docname="logo.svg"
   inkscape:version="0.92.0 r15299"
   width="81.376305"
   height="82.123634">
  <metadata
     id="metadata3694">
    <rdf:RDF>
      <cc:Work
         rdf:about="">
        <dc:format>image/svg+xml</dc:format>
        <dc:type
           rdf:resource="http://purl.org/dc/dcmitype/StillImage" />
        <dc:title></dc:title>
      </cc:Work>
    </rdf:RDF>
  </metadata>
  <defs
     id="defs3692" />
  <sodipodi:namedview
     pagecolor="#ffffff"
     bordercolor="#666666"
     borderopacity="1"
     objecttolerance="10"
     gridtolerance="10"
     guidetolerance="10"
     inkscape:pageopacity="0"
     inkscape:pageshadow="2"
     inkscape:window-width="1920"
     inkscape:window-height="1017"
     id="namedview3690"
     showgrid="false"
     inkscape:zoom="3.8064516"
     inkscape:cx="15.240927"
     inkscape:cy="49.773158"
     inkscape:window-x="-8"
     inkscape:window-y="56"
     inkscape:window-maximized="1"
     inkscape:current-layer="g4576"
     fit-margin-top="0"
     fit-margin-left="0"
     fit-margin-right="0"
     fit-margin-bottom="0" />
  <g
     id="g3715"
     transform="translate(128.18404,-53.579475)">
    <g
       id="g4576">
      <path
         inkscape:connector-curvature="0"
         style="fill:#3c5afd;stroke-width:0.31933516"
         d="m -51.782286,59.51075 c 3.827402,3.862486 5.814339,8.700855 5.959459,14.515113 v 41.062497 c -0.14512,5.81289 -2.132057,10.65263 -5.959459,14.51511 -3.827398,3.86249 -8.623174,5.86764 -14.384618,6.01546 h -40.688156 c -5.76144,-0.14782 -10.55586,-2.15297 -14.38326,-6.01546 -3.8274,-3.86248 -5.81434,-8.70222 -5.96081,-14.51511 V 74.025863 c 0.14647,-5.814258 2.13341,-10.652627 5.96081,-14.515113 3.8274,-3.862483 8.62182,-5.867635 14.38326,-6.015454 h 40.688156 c 5.761444,0.147819 10.55722,2.152971 14.384618,6.015454 z M -120.4232,94.556432 c 84.188417,19.320048 42.094205,9.660018 0,0 z"
         id="path2"
         sodipodi:nodetypes="sccccccccsccscc" />
      <path
         id="path3711"
         d="m -92.562232,128.11292 c -6.620789,1.72122 -13.612288,-0.87108 -17.510538,-6.49258 -2.36773,-3.30538 -3.3034,-7.42551 -2.59552,-11.42933 0.1171,-0.65133 0.27957,-1.29368 0.48618,-1.92235 l 0.38897,-1.18184 1.05467,0.748 c 2.43121,1.78837 5.15086,3.14695 8.04093,4.01672 l 0.74797,0.23188 -0.0748,0.748 c -0.0895,1.08312 0.20447,2.16324 0.83027,3.0518 1.16948,1.7357 3.30996,2.54027 5.333195,2.00462 0.44479,-0.11894 0.868628,-0.30564 1.256633,-0.5535 l 20.517454,-13.09737 c 1.01751,-0.64248 1.719954,-1.68122 1.937303,-2.8648 0.221941,-1.20083 -0.04755,-2.440482 -0.747994,-3.440782 -1.175534,-1.69551 -3.283793,-2.477894 -5.280831,-1.95974 -0.446579,0.120534 -0.872651,0.307098 -1.264109,0.553514 l -7.86889,4.996608 c -1.288814,0.82174 -2.696618,1.43986 -4.173803,1.83257 -6.625361,1.72582 -13.623628,-0.86678 -17.525478,-6.49258 -2.35467,-3.310902 -3.27675,-7.430571 -2.55814,-11.429338 0.70701,-3.92456 3.03032,-7.371532 6.40281,-9.499515 0,0 4.3259,-2.500421 5.579839,-3.594756 1.253937,-1.094335 1.501341,-2.14721 1.80661,-3.366564 0.337453,-1.347905 -0.38479,-4.608183 -0.38479,-4.608183 0,0 2.536479,2.11809 3.855007,2.417535 1.525637,0.34648 2.652323,0.649505 4.152547,-0.254513 1.500223,-0.904017 5.515733,-3.690881 5.515733,-3.690881 1.288814,-0.821743 2.696619,-1.439866 4.173803,-1.832584 6.623137,-1.724676 13.618663,0.868031 17.518002,6.492582 2.367741,3.305372 3.303402,7.425515 2.595538,11.429339 -0.117112,0.651318 -0.279572,1.29366 -0.486194,1.922342 l -0.388959,1.181828 -1.05467,-0.747992 c -2.431198,-1.788376 -5.150859,-3.146943 -8.040928,-4.016726 l -0.747992,-0.231877 0.07479,-0.747993 c 0.08938,-1.083131 -0.204466,-2.163256 -0.830271,-3.051812 -1.174127,-1.69733 -3.283678,-2.480194 -5.280833,-1.959743 -0.44479,0.118954 -0.868625,0.305645 -1.25663,0.553517 l -20.569823,13.052481 c -1.01795,0.640615 -1.718609,1.68075 -1.929829,2.864815 -0.22976,1.20093 0.0403,2.443626 0.748,3.440768 1.175529,1.695515 3.283802,2.4779 5.280842,1.959743 0.446576,-0.120535 0.872645,-0.3071 1.264102,-0.553514 l 7.838975,-4.996596 c 1.288814,-0.821744 2.696619,-1.439865 4.173805,-1.832585 6.625359,-1.725827 13.623638,0.866792 17.52548,6.492582 2.362509,3.307587 3.292734,7.427554 2.580578,11.42935 -0.70701,3.92455 -3.030325,7.37153 -6.402822,9.49951 0,0 -3.642471,2.49221 -4.94998,3.45559 -1.307509,0.96338 -1.787244,1.95442 -1.932383,3.30419 -0.145137,1.34976 0.623968,4.29276 0.623968,4.29276 0,0 -2.468149,-1.43901 -4.120502,-2.02658 -1.330513,-0.47312 -2.96579,-0.44851 -5.014807,0.79706 -1.63188,0.992 -5.131233,3.27433 -5.131233,3.27433 -1.288815,0.82176 -2.696622,1.43987 -4.173809,1.83259"
         style="fill:#ffffff;stroke-width:0.74799329"
         inkscape:connector-curvature="0"
         sodipodi:nodetypes="cccccccccccccccccccccczscszccccccccccccccccccccccczscsscc" />
    </g>
  </g>
</svg>
